<?xml version="1.0" encoding="UTF-8" standalone="no"?>
<!-- Created with Inkscape (http://www.inkscape.org/) -->

<svg
   width="119.29116"
   height="29.471878"
   viewBox="0 0 119.29116 29.471878"
   version="1.1"
   id="svg1"
   xmlns="http://www.w3.org/2000/svg"
   xmlns:svg="http://www.w3.org/2000/svg">
  <defs
     id="defs1" />
  <g
     id="layer1"
     transform="translate(-0.25263931,-45.419904)">
    <path
       d="M 8.6533905,47.721734 8.2561937,47.708924 Q 7.8461841,47.606422 7.5386768,47.23485 q 0.1793793,-0.07688 0.3587585,-0.153753 0.2818816,0 0.5509504,0.358758 0.1025024,0.140941 0.2050048,0.281882 z m 5.1635585,-0.256256 q -1.460659,0 -1.845043,0.307507 -0.499699,0.397197 -0.499699,1.92192 -0.01281,0.358759 -0.02563,1.114714 0,0.743142 0,1.6016 0,1.204403 0.02563,2.088486 0.02563,0.871271 0.102502,1.217216 -0.179379,0.05125 -0.397197,0.08969 -0.205005,0.02563 -0.371571,0.02563 -0.115315,0 -0.243443,0 -0.115315,0 -0.256256,-0.01281 -0.230631,0 -0.4740739,0.01281 -0.2434432,0 -0.4996992,0.01281 -0.3075072,0 -0.3971968,-0.102502 -0.076877,-0.102503 -0.2818816,-0.64064 h 2.1525505 q 0.166566,-0.32032 0.166566,-0.871271 0,-0.06406 -0.06406,-1.1019 -0.05125,-1.037837 -0.05125,-1.665664 0,-2.562561 0.256256,-3.446644 0.217818,-0.730329 0.858458,-0.832832 0.64064,-0.102502 1.358157,-0.205005 -0.128128,-0.23063 -0.217818,-0.422822 -0.07688,-0.205005 -0.153754,-0.435635 0.397197,0.217817 0.512512,0.358758 0.153754,0.256256 0.345946,0.499699 z m -5.0482433,3.2032 Q 8.4868241,50.386796 7.3208592,48.733945 6.1036432,47.004217 5.6808208,46.235449 q 0.448448,0.243443 0.9225216,0.794394 0.3331328,0.397196 0.9481472,1.319718 0.6150145,0.922522 1.2172161,1.832231 z M 12.458792,46.60702 q -1.332531,0 -1.857856,0.781581 -0.358758,0.538138 -0.358758,1.563162 v 5.535129 H 8.1536913 L 3.4770191,47.837049 H 3.2335759 v 4.317914 q 0.3971968,1.089088 0.5893888,1.255654 0.2690688,0.217818 1.3709697,0.217818 -0.064064,0.217817 -0.128128,0.435635 -0.051251,0.06406 -0.2434432,0.422822 H 0.51726223 Q 0.49163663,54.345952 0.46601102,54.179385 0.44038542,54.012819 0.40194702,53.74375 1.234779,53.666873 1.7088527,53.295302 2.2469903,52.87248 2.2469903,52.154963 v -4.061658 q 0,-0.615014 -0.4228224,-1.063462 -0.512512,-0.538138 -1.42222088,-0.538138 L 0.77351823,45.633247 H 4.450792 l 4.9073025,6.765159 0.012813,-2.037235 q 0,-1.768167 -0.08969,-2.280679 -0.256256,-1.473472 -1.8578561,-1.473472 0.128128,-0.474073 0.1921921,-0.615014 0.076877,-0.140941 0.1665664,-0.358759 h 4.3051011 q 0.102502,0.217818 0.205005,0.435636 0.05125,0.128128 0.166566,0.538137 z M 1.5038479,47.721734 H 0.77351823 q -0.0768768,-0.128128 -0.1665664,-0.179379 -0.0896896,-0.05125 -0.0896896,-0.192192 0,-0.08969 0.0384384,-0.140941 0.0512512,-0.05125 0.0896896,-0.102503 0.26906881,0.06406 0.42282237,0.166567 0.2306305,0.166566 0.4356353,0.448448 z M 4.450792,53.01342 Q 4.1048463,52.667475 4.0151567,52.539347 3.9510927,52.347155 3.8485903,52.154963 V 49.57959 q 0.192192,0.192192 0.3459456,0.41001 0.1537536,0.217817 0.2562561,0.448448 z M 6.18052,54.435641 Q 6.103643,54.717523 5.988328,54.948153 5.8217616,55.281286 5.4501904,55.832236 H 1.1450894 Q 1.0553998,55.729734 0.97852304,55.627232 0.91445904,55.524729 0.77351823,55.101907 H 5.1939344 q 0.2946944,-0.422823 0.32032,-0.486887 0.038438,-0.06406 0.1665664,-0.499699 H 6.052392 q 0,0.06406 0.064064,0.153754 0.064064,0.08969 0.064064,0.166566 z m 17.476672,-6.303898 q 0.06406,1.012212 0.06406,1.153152 0,0.08969 -0.384384,0.205005 -0.371571,0.102503 -0.832832,0.371572 h -0.461261 q -0.05125,-0.153754 -0.07688,-0.256256 -0.02563,-0.102503 -0.03844,-0.205005 0.422823,-0.17938 0.845645,-0.358759 0.345946,-0.192192 0.345946,-0.948147 0,-0.23063 -0.01281,-0.820019 -0.01281,-0.602202 -0.01281,-0.781581 0.384384,0.294694 0.499699,0.448448 0.115315,0.153754 0.115315,0.345946 0,0.05125 -0.02562,0.32032 -0.02563,0.269068 -0.02563,0.525324 z m 1.742541,4.522919 q -0.32032,-0.06406 -0.563763,-0.102502 -0.243443,-0.03844 -0.41001,-0.03844 -0.422822,0 -0.627827,0.217818 -0.243443,0.269069 -0.243443,0.896896 0,0.358758 0.07688,0.845645 0.07688,0.486886 0.256256,1.19159 -0.166567,0.05125 -0.269069,0.07688 -0.08969,0.02562 -0.140941,0.02562 -0.07688,0 -0.192192,0 -0.115315,0 -0.269069,-0.01281 -0.602201,0 -0.691891,-0.03844 -0.128128,-0.140941 -0.281882,-0.294694 v -0.333133 h 0.922522 q 0.102502,-0.371571 0.102502,-0.474074 -0.03844,-0.14094 -0.07688,-0.422822 -0.02563,-0.281882 -0.02563,-0.691891 0,-0.832832 0.205005,-1.076275 0.205005,-0.256256 0.730329,-0.256256 0.08969,0 0.358759,0.01281 0.269069,0.01281 0.448448,0.01281 0,-0.23063 -0.07688,-0.512512 -0.07688,-0.294694 -0.140941,-0.538137 0.435635,0.23063 0.550951,0.410009 0.153753,0.345946 0.358758,0.755955 z m -1.268467,-0.948147 q -1.037837,0 -1.409408,0.269069 -0.32032,0.23063 -0.32032,0.820019 0,0.192192 0.05125,0.755955 0.05125,0.563763 0.05125,0.948147 H 21.696834 L 21.22276,53.923129 q -0.973773,0.550951 -1.640038,0.755955 -0.525325,0.166567 -1.025024,0.166567 -1.768167,0 -3.011008,-1.383783 -1.153152,-1.28128 -1.153152,-2.857254 0,-1.012211 0.333132,-2.01161 0.435636,-1.294093 1.268468,-2.062861 1.050649,-0.96096 2.56256,-0.96096 0.615014,0 1.242841,0.17938 0.397197,0.115315 1.550349,0.64064 l 0.461261,-0.576576 q 0.243443,0.128128 0.474074,0.243443 0.243443,0.115315 0.243443,0.422822 0,0.115315 -0.01281,0.435635 -0.01281,0.307508 -0.01281,0.461261 0,0.230631 0,0.422823 0,0.192192 0.01281,0.345945 0,0.384384 -0.153754,0.499699 -0.102502,0.07688 -0.78158,0.294695 -0.563764,-1.127527 -0.922522,-1.524723 -0.615014,-0.691892 -1.511911,-0.691892 -1.345344,0 -1.998796,1.127527 -0.550951,0.948147 -0.550951,2.524122 0,1.640038 0.512512,2.498496 0.563763,0.935334 1.678477,0.935334 0.704704,0 1.165965,-0.32032 0.461261,-0.333133 0.461261,-0.896896 0,-0.538138 -0.345946,-0.755955 -0.243443,-0.153754 -0.691891,-0.153754 -0.115315,0 -0.281882,0.01281 -0.153753,0.01281 -0.179379,0.01281 v -0.333133 l 0.345946,-0.461261 h 4.407603 q 0.153754,0.217818 0.269069,0.41001 0.08969,0.192192 0.192192,0.384384 z m -3.600397,-3.7029 q -0.602202,-0.153753 -1.05065,-0.153753 -0.986585,0 -1.435033,0.730329 -0.371572,0.602202 -0.371572,1.640039 0,0.653453 0.153754,1.435034 0.102502,0.55095 0.281882,1.1019 v 0.345946 q -0.474074,-0.281882 -0.691892,-0.691891 -0.256256,-0.486887 -0.256256,-1.537536 v -0.435635 q 0,-3.126324 1.92192,-3.126324 0.371572,0 0.691892,0.153754 0.32032,0.140941 0.755955,0.538137 z m -0.691891,4.651047 h -0.576576 q -0.128128,-0.179379 -0.17938,-0.294694 -0.03844,-0.115316 -0.06406,-0.166567 l 0.82002,0.115315 z m 1.627225,2.434432 q -0.499699,0.397197 -1.127526,0.589389 -0.627827,0.192192 -1.614413,0.192192 -1.140339,0 -1.909107,-0.397197 -0.845645,-0.448448 -1.37097,-1.435034 0.794394,0.627828 1.076275,0.781581 0.909709,0.486887 2.088487,0.486887 0.807206,0 1.409408,-0.230631 0.615014,-0.23063 1.204403,-0.461261 0.07688,0.230631 0.243443,0.474074 z M 34.253368,47.875487 H 33.34366 q -0.128128,-0.371571 -0.128128,-0.691891 h 0.589388 q 0.102503,0.06406 0.140941,0.08969 0.140941,0.08969 0.307507,0.602201 z m 4.830426,-0.115315 q -0.08969,0.01281 -0.205005,0.01281 -0.115315,0 -0.166566,0 -0.230631,0 -0.461261,-0.01281 -0.217818,-0.01281 -0.422822,-0.02562 -0.486887,0 -0.679079,0.179379 -0.256256,0.23063 -0.256256,0.884083 v 3.318515 q 0,1.806605 -1.409408,2.857255 -1.28128,0.948147 -3.190387,0.948147 -1.178778,0 -1.819418,-0.179379 -0.832832,-0.230631 -1.614413,-0.96096 0.807207,0.307507 1.396596,0.435635 0.602201,0.128128 1.396595,0.128128 2.33193,0 3.561958,-1.114714 1.114714,-1.012211 1.114714,-2.677875 v -3.331328 q 0,-0.576576 0.358758,-0.820019 0.269069,-0.179379 0.781581,-0.179379 0.230631,0 0.474074,0.02563 0.243443,0.02563 0.448448,0.03844 0,-0.205005 -0.08969,-0.538138 -0.128128,-0.461261 -0.128128,-0.486886 0.512512,0.384384 0.653453,0.832832 0.153754,0.448448 0.256256,0.666265 z M 37.700012,46.60702 q -1.063463,0 -1.46066,0.269069 -0.486886,0.32032 -0.486886,1.230029 v 3.331328 q 0,1.780979 -1.268467,2.677875 -1.063463,0.755955 -2.754752,0.755955 -3.907904,0 -3.907904,-3.087884 V 47.97799 q 0,-0.602202 -0.435636,-1.012211 -0.435635,-0.41001 -1.025024,-0.41001 -0.102502,0 -0.166566,0 -0.05125,0 -0.217818,0.05125 0.07688,-0.333133 0.153754,-0.563763 0.07688,-0.243443 0.192192,-0.474074 h 5.061056 l 0.461261,0.807207 v 0.345945 q -0.422823,-0.07688 -0.717517,-0.07688 -0.922522,0 -1.178778,0.832832 -0.179379,0.602201 -0.179379,2.639437 0,2.139737 0.333133,2.806003 0.461261,0.922521 2.024422,0.922521 1.729729,0 2.33193,-1.012211 0.397197,-0.666265 0.397197,-2.229427 0,-0.281882 -0.01281,-0.512512 0,-0.23063 0,-0.397197 v -0.653453 q 0,-1.563161 -0.32032,-2.024422 -0.32032,-0.474074 -0.973773,-0.474074 -0.115315,0 -0.256256,0.01281 -0.14094,0.01281 -0.294694,0.05125 0.06406,-0.32032 0.102502,-0.448448 0.05125,-0.128128 0.243444,-0.474073 h 4.138534 z m -5.394189,1.268467 q -0.781581,0 -1.025024,0.115316 -0.243444,0.102502 -0.243444,0.576576 v 3.549145 q 0,0.07688 0.07688,0.448448 0.08969,0.358759 0.153754,0.589389 -0.397197,-0.166566 -0.563763,-0.32032 -0.345946,-0.32032 -0.345946,-0.820019 V 47.97799 q 0,-0.358759 0.23063,-0.576576 0.230631,-0.217818 0.666266,-0.217818 0.217818,0 0.55095,0.05125 0.333133,0.05125 0.384384,0.05125 z m -5.061056,0 h -0.922522 q -0.01281,-0.03844 -0.102503,-0.256256 -0.08969,-0.217817 -0.128128,-0.435635 h 0.807207 q 0.179379,0.243443 0.23063,0.358759 0.05125,0.102502 0.115316,0.333132 z m 26.163749,-0.23063 q -2.139738,0 -3.818214,1.614413 -1.550349,1.486285 -1.550349,3.087885 0,0.294694 0.05125,0.499699 h -0.358758 q -0.32032,-0.358758 -0.41001,-0.615014 -0.08969,-0.256256 -0.08969,-0.743143 0,-0.192192 0.589389,-1.114713 0.794394,-1.255655 1.793792,-2.01161 1.409408,-1.076275 3.06226,-1.076275 0,-0.333133 -0.03844,-0.627828 -0.06406,-0.333132 -0.07688,-0.448448 0.448448,0.256256 0.525325,0.397197 0.102503,0.294695 0.32032,0.679079 z m -5.547942,-0.358758 q -0.140941,0.422822 -0.256256,0.563763 -0.102503,0.140941 -0.243444,0.140941 -0.102502,0 -0.166566,-0.01281 -0.333133,-0.06406 -0.448448,-0.06406 -0.166566,0 -0.294694,0.02563 -0.128128,0.01281 -0.294695,0.06406 0.153754,0.256256 0.32032,0.4997 0.08969,0.179379 0.166567,0.474073 -0.05125,0 -0.128128,0.05125 -0.07688,0.05125 -0.128128,0.05125 -0.166567,0 -0.576576,-0.525325 -0.4997,-0.627827 -0.4997,-1.268467 z m 4.087283,-0.602202 q -1.319719,0 -2.639437,1.165965 -1.012211,0.896896 -1.845043,2.293491 -0.691891,1.165965 -0.691891,1.537536 0,1.204403 0.46126,1.524723 0.32032,0.230631 1.473472,0.230631 -0.128128,0.294694 -0.281881,0.576576 -0.140941,0.281881 -0.217818,0.397197 H 42.90202 q -0.140941,-0.32032 -0.217818,-0.550951 -0.07688,-0.23063 -0.140941,-0.538137 1.076276,0 1.422221,-0.230631 0.512512,-0.333133 0.512512,-1.460659 0,-0.602202 -0.653453,-1.755354 -0.743142,-1.306905 -1.716915,-2.139737 -1.230029,-1.05065 -2.447245,-1.05065 v -0.358758 l 0.345946,-0.615015 h 5.676071 q 0.269068,0.384384 0.32032,0.486887 0.06406,0.192192 0.153753,0.486886 h -1.563162 q -0.06406,0.243443 -0.115315,0.486886 0,0.230631 0.576576,1.14034 0.679079,1.063462 1.345344,1.51191 0.307508,-0.256256 1.076276,-1.114714 0.973772,-1.1019 0.973772,-1.42222 0,-0.371572 -0.294694,-0.486887 -0.281882,-0.128128 -0.781581,-0.128128 -0.128128,0 -0.256256,0.01281 -0.115315,0 -0.23063,0 l 0.474073,-0.973773 h 4.228224 l 0.358759,0.615015 z m -10.25024,1.319718 H 40.24977 q -0.140941,-0.14094 -0.243443,-0.269068 -0.102502,-0.128128 -0.23063,-0.333133 0.192192,-0.115315 0.281881,-0.153754 0.153754,-0.07688 0.307507,-0.07688 0.281882,0 0.64064,0.217818 0.371572,0.205005 0.691892,0.615014 z m 7.943936,6.457652 q 0,0.397197 -0.281882,0.922521 -0.08969,0.17938 -0.294694,0.461261 h -5.560756 l -0.345945,-0.474073 v -0.358759 h 5.407002 q 0.166566,-0.269069 0.384384,-0.730329 0.153753,-0.294695 0.23063,-0.474074 0.192192,0.06406 0.397197,0.128128 0.06406,0.102502 0.06406,0.525325 z m 14.709103,-6.790784 v 0.563763 q 0,0.563763 -0.08969,0.666265 -0.538138,0.153754 -1.435034,0.717517 h -0.345946 q -0.06406,-0.08969 -0.128128,-0.192192 -0.05125,-0.115315 -0.115315,-0.294694 0.64064,-0.358759 1.294093,-0.717517 0.256256,-0.192192 0.256256,-0.755955 0,-0.205005 -0.01281,-0.768768 -0.01281,-0.563763 -0.01281,-0.794394 0.384384,0.281882 0.4997,0.448448 0.128128,0.153754 0.128128,0.345946 0,0.102502 0,0.205005 -0.03844,0.499699 -0.03844,0.576576 z m -3.395392,-0.06406 q -1.140339,0 -1.383782,0.448448 -0.205005,0.538137 -0.371572,0.96096 H 58.725837 V 48.55457 q 0.23063,-0.704704 0.281881,-0.820019 0.230631,-0.474074 0.986586,-0.474074 0.461261,0 0.55095,0.03844 0.17938,0.140941 0.41001,0.307508 z m 0.576576,3.164761 q 0,0.307508 0,0.576576 0,0.256256 0.01281,0.474074 0,0.474074 -0.140941,0.525325 -0.397197,0.153753 -0.794394,0.307507 l -0.602201,-0.128128 q 0.410009,-0.32032 0.832832,-0.64064 0.23063,-0.307507 0.23063,-2.754752 0.294695,0.205005 0.397197,0.422822 0.102502,0.217818 0.102502,0.512512 0,0.153754 -0.02563,0.422823 -0.01281,0.256256 -0.01281,0.281881 z m 1.768166,3.754151 h -8.789581 q -0.166566,-0.269069 -0.281881,-0.499699 -0.102503,-0.243444 -0.192192,-0.550951 1.28128,0 1.640038,-0.499699 0.474074,-0.653453 0.474074,-3.023821 0,-1.934733 -0.307507,-2.524122 -0.384384,-0.743142 -1.678477,-0.743142 0.115315,-0.474074 0.217817,-0.679078 0,-0.01281 0.243444,-0.384384 h 8.55895 v 2.344742 q -0.410009,0.23063 -0.55095,0.32032 -0.128128,0.07688 -0.397197,0.269069 h -0.461261 q -0.192192,-1.063463 -0.679078,-1.524723 -0.474074,-0.474074 -1.191591,-0.474074 -0.755955,0 -1.217216,0.781581 -0.153753,0.269069 -0.422822,1.089088 v 1.294093 h 0.820019 q 0.422823,-0.345946 0.499699,-0.448448 0.08969,-0.102503 0.08969,-0.345946 0,-0.115315 -0.01281,-0.269069 0,-0.153753 0,-0.345945 0.307507,0.07688 0.422823,0.115315 0.115315,0.02563 0.397196,0.128128 v 2.921318 q -0.358758,0.256256 -0.820019,0.345946 0,-0.781581 -0.115315,-0.948147 -0.23063,-0.153754 -0.461261,-0.333133 h -0.820019 q 0,0.461261 -0.03844,0.666266 -0.05125,0.166566 -0.102503,0.32032 0,0.909708 0.461261,1.42222 0.461261,0.512512 1.294093,0.512512 1.076275,0 1.563161,-0.679078 0.17938,-0.256256 0.563764,-1.422221 0.538137,0.115315 0.755955,0.230631 0.102502,0.05125 0.538137,0.358758 z M 55.44576,48.20862 q -0.32032,-0.07688 -0.64064,-0.153753 -0.333133,-0.115316 -0.525325,-0.448448 v -0.345946 q 0.06406,0 0.256256,-0.07688 0.02563,-0.01281 0.08969,-0.03844 0.205004,0 0.345945,0.115315 0.153754,0.115315 0.474074,0.589389 z m 3.984781,4.676672 q -0.474074,-0.179379 -0.499699,-0.217817 -0.03844,-0.179379 -0.205005,-0.486887 v -1.050649 h 0.679078 q -0.217817,0.422822 -0.217817,0.768768 0,0.205005 0.07688,0.474073 0.07688,0.256256 0.166567,0.512512 z m 5.03543,2.934132 h -9.37897 L 54.741056,55.34535 v -0.345946 h 9.020211 v -2.818816 q 0.384384,0.102503 0.589389,0.243444 0.06406,0.03844 0.115315,0.102502 z m 8.815219,-8.09769 -0.397196,-0.01281 q -0.41001,-0.102502 -0.717517,-0.474074 0.179379,-0.07688 0.358758,-0.153753 0.281882,0 0.550951,0.358758 0.102502,0.140941 0.205004,0.281882 z m 5.163559,-0.256256 q -1.460659,0 -1.845043,0.307507 -0.499699,0.397197 -0.499699,1.92192 -0.01281,0.358759 -0.02563,1.114714 0,0.743142 0,1.6016 0,1.204403 0.02563,2.088486 0.02562,0.871271 0.102502,1.217216 -0.179379,0.05125 -0.397197,0.08969 -0.205005,0.02563 -0.371571,0.02563 -0.115315,0 -0.243443,0 -0.115315,0 -0.256256,-0.01281 -0.230631,0 -0.474074,0.01281 -0.243443,0 -0.499699,0.01281 -0.307507,0 -0.397197,-0.102502 -0.07688,-0.102503 -0.281882,-0.64064 h 2.152551 q 0.166566,-0.32032 0.166566,-0.871271 0,-0.06406 -0.06406,-1.1019 -0.05125,-1.037837 -0.05125,-1.665664 0,-2.562561 0.256256,-3.446644 0.217818,-0.730329 0.858458,-0.832832 0.64064,-0.102502 1.358157,-0.205005 -0.128128,-0.23063 -0.217818,-0.422822 -0.07688,-0.205005 -0.153754,-0.435635 0.397197,0.217817 0.512512,0.358758 0.153754,0.256256 0.345946,0.499699 z m -5.048243,3.2032 q -0.281882,-0.281882 -1.447847,-1.934733 -1.217216,-1.729728 -1.640038,-2.498496 0.448448,0.243443 0.922521,0.794394 0.333133,0.397196 0.948148,1.319718 0.615014,0.922522 1.217216,1.832231 z m 3.690086,-4.061658 q -1.332531,0 -1.857856,0.781581 -0.358758,0.538138 -0.358758,1.563162 v 5.535129 h -2.088487 l -4.676672,-6.649843 h -0.243443 v 4.317914 q 0.397197,1.089088 0.589389,1.255654 0.269069,0.217818 1.370969,0.217818 -0.06406,0.217817 -0.128128,0.435635 -0.05125,0.06406 -0.243443,0.422822 h -4.305101 q -0.02562,-0.14094 -0.05125,-0.307507 -0.02563,-0.166566 -0.06406,-0.435635 0.832832,-0.07688 1.306906,-0.448448 0.538137,-0.422822 0.538137,-1.140339 v -4.061658 q 0,-0.615014 -0.422822,-1.063462 -0.512512,-0.538138 -1.422221,-0.538138 l 0.371571,-0.858458 h 3.677274 l 4.907302,6.765159 0.01281,-2.037235 q 0,-1.768167 -0.08969,-2.280679 -0.256256,-1.473472 -1.857856,-1.473472 0.128128,-0.474073 0.192192,-0.615014 0.07688,-0.140941 0.166566,-0.358759 h 4.305101 q 0.102502,0.217818 0.205005,0.435636 0.05125,0.128128 0.166566,0.538137 z m -10.954944,1.114714 h -0.73033 q -0.07688,-0.128128 -0.166566,-0.179379 -0.08969,-0.05125 -0.08969,-0.192192 0,-0.08969 0.03844,-0.140941 0.05125,-0.05125 0.08969,-0.102503 0.269069,0.06406 0.422823,0.166567 0.23063,0.166566 0.435635,0.448448 z m 2.946944,5.291686 Q 68.732646,52.667475 68.642957,52.539347 68.578893,52.347155 68.47639,52.154963 V 49.57959 q 0.192192,0.192192 0.345946,0.41001 0.153754,0.217817 0.256256,0.448448 z m 1.729728,1.422221 q -0.07688,0.281882 -0.192192,0.512512 -0.166566,0.333133 -0.538138,0.884083 h -4.305101 q -0.08969,-0.102502 -0.166566,-0.205004 -0.06406,-0.102503 -0.205005,-0.525325 h 4.420416 q 0.294695,-0.422823 0.32032,-0.486887 0.03844,-0.06406 0.166567,-0.499699 h 0.371571 q 0,0.06406 0.06406,0.153754 0.06406,0.08969 0.06406,0.166566 z m 24.741527,-4.036032 q 0,1.665664 -0.717517,2.831629 -0.820019,1.345344 -2.280679,1.345344 H 86.41432 q -0.435635,0 -0.679078,-0.345946 -0.243444,-0.474073 -0.371572,-0.704704 0.589389,-0.115315 1.191591,-0.23063 0.768768,-0.269069 0.768768,-1.037837 v -4.522918 q 0,-0.666266 -0.576576,-0.935335 -0.64064,-0.140941 -1.268467,-0.294694 0.07688,-0.179379 0.153753,-0.345946 0.08969,-0.179379 0.307507,-0.512512 h 6.150145 q 1.435033,0 2.38318,1.140339 1.076276,1.294093 1.076276,3.61321 z m 1.178777,0.461261 q 0,1.973171 -1.114713,3.485082 -1.101901,1.499097 -2.472871,1.499097 h -6.72672 l -0.358758,-0.461261 v -0.345945 h 6.842035 q 1.153152,0 2.062861,-1.089088 1.063462,-1.28128 1.063462,-3.433831 v -0.486886 q 0,-1.025024 -0.128128,-1.575975 -0.192192,-0.807206 -0.794393,-1.652851 0.922521,0.499699 1.306905,1.614413 0.32032,0.922522 0.32032,2.447245 z M 86.64495,47.734547 h -0.922521 q -0.02563,-0.17938 -0.05125,-0.243444 -0.02563,-0.07688 -0.07688,-0.217817 l 0.704704,-0.128128 q 0.153753,0.179379 0.192192,0.256256 0.03844,0.06406 0.153753,0.333133 z m 6.598593,2.588185 q 0,-1.704102 -0.230631,-2.344742 -0.422822,-1.178778 -1.806605,-1.178778 -0.832832,0 -1.19159,0.589389 -0.358758,0.576576 -0.358758,2.818816 0,0.217818 -0.01281,0.435635 0,0.217818 0,0.435636 0,1.499097 0.422822,1.998796 0.384384,0.448448 1.140339,0.448448 1.255655,0 1.742541,-1.037836 0.307507,-0.653453 0.307507,-1.729728 0,-0.153754 0,-0.32032 -0.01281,-0.05125 -0.01281,-0.115316 z m -0.807207,-2.370368 q -0.499699,-0.115315 -0.820019,-0.115315 -0.55095,0 -0.755955,0.333133 -0.192192,0.333133 -0.192192,1.101901 0,0.32032 0.07688,1.575974 0.07688,1.255655 0.07688,2.216615 -0.589388,-0.371572 -0.743142,-1.114714 -0.08969,-0.435635 -0.08969,-1.742541 0,-1.435034 0.153754,-2.024422 0.281882,-1.05065 1.140339,-1.05065 0.32032,0 0.666266,0.269069 0.358758,0.269069 0.486886,0.55095 z m 13.107494,-0.07688 h -0.90971 q -0.12813,-0.371571 -0.12813,-0.691891 h 0.58939 q 0.10251,0.06406 0.14094,0.08969 0.14094,0.08969 0.30751,0.602201 z m 4.83043,-0.115315 q -0.0897,0.01281 -0.20501,0.01281 -0.11531,0 -0.16656,0 -0.23064,0 -0.46127,-0.01281 -0.21781,-0.01281 -0.42282,-0.02562 -0.48688,0 -0.67908,0.179379 -0.25625,0.23063 -0.25625,0.884083 v 3.318515 q 0,1.806605 -1.40941,2.857255 -1.28128,0.948147 -3.19039,0.948147 -1.17878,0 -1.81942,-0.179379 -0.83283,-0.230631 -1.61441,-0.96096 0.80721,0.307507 1.3966,0.435635 0.6022,0.128128 1.39659,0.128128 2.33193,0 3.56196,-1.114714 1.11471,-1.012211 1.11471,-2.677875 v -3.331328 q 0,-0.576576 0.35876,-0.820019 0.26907,-0.179379 0.78158,-0.179379 0.23063,0 0.47408,0.02563 0.24344,0.02563 0.44845,0.03844 0,-0.205005 -0.0897,-0.538138 -0.12813,-0.461261 -0.12813,-0.486886 0.51251,0.384384 0.65345,0.832832 0.15375,0.448448 0.25626,0.666265 z m -1.38379,-1.153152 q -1.06346,0 -1.46066,0.269069 -0.48688,0.32032 -0.48688,1.230029 v 3.331328 q 0,1.780979 -1.26847,2.677875 -1.06346,0.755955 -2.75475,0.755955 -3.907905,0 -3.907905,-3.087884 V 47.97799 q 0,-0.602202 -0.435635,-1.012211 -0.435635,-0.41001 -1.025024,-0.41001 -0.102503,0 -0.166567,0 -0.05125,0 -0.217817,0.05125 0.07688,-0.333133 0.153753,-0.563763 0.07688,-0.243443 0.192192,-0.474074 h 5.061053 l 0.46126,0.807207 v 0.345945 q -0.42282,-0.07688 -0.71751,-0.07688 -0.92252,0 -1.17878,0.832832 -0.17938,0.602201 -0.17938,2.639437 0,2.139737 0.33313,2.806003 0.46126,0.922521 2.02443,0.922521 1.72972,0 2.33193,-1.012211 0.39719,-0.666265 0.39719,-2.229427 0,-0.281882 -0.0128,-0.512512 0,-0.23063 0,-0.397197 v -0.653453 q 0,-1.563161 -0.32032,-2.024422 -0.32032,-0.474074 -0.97377,-0.474074 -0.11532,0 -0.25626,0.01281 -0.14094,0.01281 -0.29469,0.05125 0.0641,-0.32032 0.1025,-0.448448 0.0512,-0.128128 0.24344,-0.474073 h 4.13854 z m -5.39418,1.268467 q -0.78159,0 -1.02503,0.115316 -0.24344,0.102502 -0.24344,0.576576 v 3.549145 q 0,0.07688 0.0769,0.448448 0.0897,0.358759 0.15376,0.589389 -0.3972,-0.166566 -0.56376,-0.32032 -0.34595,-0.32032 -0.34595,-0.820019 V 47.97799 q 0,-0.358759 0.23063,-0.576576 0.23063,-0.217818 0.66627,-0.217818 0.21781,0 0.55095,0.05125 0.33313,0.05125 0.38438,0.05125 z m -5.061061,0 h -0.922522 q -0.01281,-0.03844 -0.102502,-0.256256 -0.08969,-0.217817 -0.128128,-0.435635 h 0.807206 q 0.17938,0.243443 0.230631,0.358759 0.05125,0.102502 0.115315,0.333132 z m 20.820811,0.358759 q 0,0.23063 0,0.435635 0,0.192192 0.0128,0.345946 0,0.371571 -0.34594,0.499699 -0.33313,0.128128 -0.66627,0.269069 h -0.46126 l -0.1025,-0.461261 q 0.58939,-0.269069 0.73033,-0.371571 0.30751,-0.230631 0.30751,-1.012212 0,-0.256256 -0.0128,-0.486886 0,-0.243443 0,-0.461261 v -0.166566 q 0.34595,0.179379 0.3972,0.205005 0.17938,0.115315 0.17938,0.333132 0,0.115316 -0.0256,0.435636 -0.0128,0.307507 -0.0128,0.435635 z m -3.15195,-0.384384 q -0.33313,-0.07688 -0.58939,-0.07688 -0.7047,0 -0.97377,0.563763 -0.25626,0.563763 -0.25626,1.729728 0,0.807207 0.10251,1.435034 0.1025,0.615014 0.34594,1.575974 -0.64064,-0.397196 -0.92252,-1.345344 -0.21782,-0.743142 -0.21782,-1.845043 0,-0.935334 0.26907,-1.69129 0.37157,-1.050649 1.14034,-1.050649 0.20501,0 0.52533,0.179379 0.33313,0.166566 0.57657,0.525325 z m 2.03724,4.023219 q 0,0.884083 -0.67908,1.69129 -0.92252,1.101901 -2.61381,1.101901 -1.72973,0 -2.83163,-1.217216 -1.15315,-1.268468 -1.15315,-3.38258 0,-1.768166 0.9994,-3.023821 1.08908,-1.370969 2.81881,-1.370969 0.66627,0 1.35816,0.345945 0.69189,0.333133 0.78158,0.333133 0.0384,0 0.28188,-0.217817 0.0769,-0.06406 0.24344,-0.217818 0.33314,0.205005 0.66627,0.41001 0.14094,0.102502 0.14094,0.358758 0,0.166566 -0.0128,0.32032 0,0.153754 0,0.307507 v 0.128128 q 0,0.358759 0.0128,0.550951 0.0256,0.179379 0.0512,0.384384 0,0.08969 -0.28188,0.205004 -0.26907,0.115316 -0.57658,0.294695 -0.57657,-0.832832 -1.14034,-1.678477 -0.57657,-0.589389 -1.25565,-0.589389 -0.71752,0 -1.34534,0.935335 -0.57658,0.858457 -0.57658,2.293491 0,1.537536 0.46126,2.575373 0.58939,1.332531 1.80661,1.332531 1.03783,0 1.58878,-0.781581 0.35876,-0.845645 0.73033,-1.704102 0.23063,0 0.37157,0.192192 0.15376,0.179379 0.15376,0.422822 z m 1.11471,0.743143 q 0,1.268467 -1.08909,2.280678 -1.08909,1.012211 -2.93413,1.012211 -1.11471,0 -1.8066,-0.371571 -0.44845,-0.243443 -1.19159,-0.986586 0.55095,0.281882 1.11471,0.563764 0.57658,0.243443 1.37097,0.243443 1.43503,0 2.52412,-0.768768 1.25566,-0.896896 1.47347,-2.524122 0.17938,0.01281 0.35876,0.05125 0.17938,0.02563 0.17938,0.4997 z"
       id="text1"
       style="font-size:12.8128px;font-family:'Shadowed Serif';-inkscape-font-specification:'Shadowed Serif, Normal';stroke:#ff0000;stroke-width:0.298599"
       aria-label="Nguyen Duc" />
    <g
       id="g3"
       transform="translate(-3.4832024)">
      <path
         d="m 71.548839,70.644546 q -0.408652,-0.148601 -0.538677,-0.222901 -0.130026,-0.09288 -0.334352,-0.297202 v -9.28755 q 0.03715,0.03715 0.390077,0.334352 0.371502,0.297202 0.482952,0.390077 z m 0.705854,0.87303 q -0.11145,0.260051 -0.297201,0.594403 -0.09288,0.148601 -0.408653,0.631553 h -6.63131 q -0.278627,-0.408652 -0.371502,-0.612978 -0.09288,-0.222901 -0.148601,-0.612978 1.281682,0 1.85751,-0.482953 0.575828,-0.482953 0.575828,-1.430283 0,-1.448857 -0.05572,-2.972016 -0.05573,-1.541733 -0.111451,-3.324942 L 65.251881,63.99466 H 64.1931 v -1.207381 q 0.854454,-0.371502 1.708909,-0.743004 0.668704,-0.427228 1.448858,-1.89466 h 2.451913 v 9.789077 q 0,1.095931 0.83588,1.411708 0.427227,0.167176 1.616033,0.167176 z M 66.143485,65.74072 h -1.225956 q -0.297202,-0.427228 -0.352927,-0.520103 0.445802,-0.315777 0.780154,-0.445803 0.334352,-0.130025 0.631553,-0.241476 z m 7.504341,7.355739 q -0.185751,0.278627 -0.408652,0.705854 -0.222902,0.427227 -0.445803,0.87303 h -7.355739 q -0.09288,-0.241477 -0.222902,-0.501528 -0.0743,-0.278627 -0.130025,-0.557253 h 6.984237 q 0.297202,-0.427227 0.538678,-0.87303 0.185751,-0.352927 0.352927,-0.705854 l 0.687279,0.167176 z"
         id="text2"
         style="font-size:18.5751px;font-family:'Shadowed Serif';-inkscape-font-specification:'Shadowed Serif, Normal';fill:#000080;stroke:#d40000;stroke-width:0.432888"
         aria-label="1" />
      <path
         d="m 60.470772,70.644546 q -0.408653,-0.148601 -0.538678,-0.222901 -0.130026,-0.09288 -0.334352,-0.297202 v -9.28755 q 0.03715,0.03715 0.390077,0.334352 0.371502,0.297202 0.482953,0.390077 z m 0.705853,0.87303 q -0.11145,0.260051 -0.297201,0.594403 -0.09288,0.148601 -0.408652,0.631553 h -6.631311 q -0.278627,-0.408652 -0.371502,-0.612978 -0.09288,-0.222901 -0.148601,-0.612978 1.281682,0 1.85751,-0.482953 0.575828,-0.482953 0.575828,-1.430283 0,-1.448857 -0.05573,-2.972016 -0.05572,-1.541733 -0.111451,-3.324942 l -1.411707,0.687278 h -1.058781 v -1.207381 q 0.854455,-0.371502 1.708909,-0.743004 0.668704,-0.427228 1.448858,-1.89466 h 2.451913 v 9.789077 q 0,1.095931 0.83588,1.411708 0.427227,0.167176 1.616033,0.167176 z M 55.065418,65.74072 h -1.225957 q -0.297202,-0.427228 -0.352927,-0.520103 0.445802,-0.315777 0.780154,-0.445803 0.334352,-0.130025 0.631554,-0.241476 z m 7.50434,7.355739 q -0.185751,0.278627 -0.408652,0.705854 -0.222901,0.427227 -0.445803,0.87303 h -7.355739 q -0.09288,-0.241477 -0.222901,-0.501528 -0.0743,-0.278627 -0.130026,-0.557253 h 6.984237 q 0.297202,-0.427227 0.538678,-0.87303 0.185751,-0.352927 0.352927,-0.705854 l 0.687279,0.167176 z"
         id="text3"
         style="font-size:18.5751px;font-family:'Shadowed Serif';-inkscape-font-specification:'Shadowed Serif, Normal';fill:#ff0000;stroke:#000080;stroke-width:0.432888"
         aria-label="1" />
    </g>
  </g>
</svg>
