<?xml version="1.0" encoding="UTF-8" standalone="no"?>
<!-- Created with Inkscape (http://www.inkscape.org/) -->

<svg
   width="200"
   height="50"
   viewBox="0 0 52.916665 13.229167"
   version="1.1"
   id="svg1"
   xmlns="http://www.w3.org/2000/svg"
   xmlns:svg="http://www.w3.org/2000/svg">
  <defs
     id="defs1" />
  <g
     id="layer1">
    <path
       d="m 3.5749288,5.9472616 -0.15743,0.040286 q -0.1726941,0.00653 -0.335837,-0.1042926 0.061666,-0.050653 0.1233324,-0.1013063 0.1106871,-0.03216 0.2572744,0.078015 0.05633,0.043649 0.1126602,0.087298 z M 5.5732782,5.2575156 Q 4.9997178,5.4241653 4.883865,5.58877 4.7329641,5.8017499 4.906923,6.4004664 q 0.0359,0.1423364 0.1171176,0.4406408 0.084787,0.2918114 0.1827299,0.6289039 0.1374129,0.4729358 0.2483423,0.817167 0.1094676,0.3392001 0.1791246,0.4662723 -0.06459,0.040591 -0.1457352,0.080536 -0.077576,0.033452 -0.1429821,0.052456 -0.045281,0.013157 -0.095593,0.027775 -0.045281,0.013156 -0.1020864,0.024205 -0.090562,0.026313 -0.1846937,0.059119 -0.095593,0.027775 -0.1947562,0.062043 -0.1207496,0.035084 -0.1676629,0.00507 Q 4.5588454,9.033173 4.4169484,8.8452507 L 5.2621953,8.5996617 Q 5.2910553,8.454877 5.2281962,8.238534 5.220887,8.2133779 5.0773218,7.8131573 4.9387879,7.411475 4.8671577,7.1649446 4.5747898,6.1586984 4.5745475,5.7823067 4.5767536,5.4706752 4.8166204,5.3573334 5.0564873,5.2439916 5.3265415,5.1218787 5.2499161,5.0459349 5.1927699,4.9806993 5.139193,4.9089707 5.0826925,4.8271796 q 0.1808195,0.040214 0.2421808,0.082401 0.089612,0.083083 0.192855,0.1567484 z M 3.956433,7.0912882 Q 3.8135855,7.0127616 3.1671661,6.4967601 2.4918508,5.9564187 2.2381098,5.7027855 q 0.203868,0.044429 0.4528827,0.2066839 0.176129,0.1179604 0.5228806,0.4100407 0.3467515,0.2920803 0.68701,0.5805913 z M 4.9420244,5.0753781 q -0.523248,0.1520313 -0.6403563,0.5188718 -0.079477,0.2522432 0.03747,0.6547417 L 4.9706528,8.4224835 4.1505621,8.6607634 1.555468,6.5831259 1.4598746,6.6109008 1.9525145,8.3064257 q 0.2802246,0.3823376 0.374697,0.425816 0.1305071,0.054832 0.563193,-0.070886 -3.049e-4,0.09284 -6.098e-4,0.1856803 -0.012816,0.031003 -0.047353,0.1938056 L 1.1519483,9.5320198 Q 1.1258057,9.4795999 1.0967393,9.4171176 1.0676729,9.3546353 1.0218806,9.2533649 1.3401396,9.128158 1.4839018,8.9281642 1.6469728,8.7007363 1.5651097,8.4189874 L 1.1017066,6.8240871 Q 1.0315383,6.582588 0.81434327,6.4547356 0.55169676,6.3018975 0.19447934,6.4056881 L 0.24244179,6.0262023 1.6864051,5.6066543 4.385218,7.7032598 4.1578167,6.9018322 Q 3.9560829,6.2075223 3.8623907,6.0165059 3.5936545,5.4671511 2.9647506,5.6498811 q -0.00378,-0.200774 0.0053,-0.2634267 0.014107,-0.064115 0.024475,-0.1598784 L 4.6850189,4.7353979 q 0.065101,0.073836 0.1302023,0.1476724 0.034743,0.044465 0.1268032,0.1923078 z m -4.17452257,1.68759 -0.28678018,0.083325 q -0.0448058,-0.041541 -0.0858718,-0.051433 -0.041066,-0.00989 -0.0571462,-0.065236 -0.0102329,-0.035219 -9.8654e-4,-0.059729 0.0142776,-0.025972 0.0235239,-0.050483 0.11296505,-0.00554 0.18503454,0.017165 0.10956608,0.039093 0.22222628,0.126391 z M 2.5284248,8.5046434 Q 2.3531118,8.4082699 2.3032748,8.3681904 2.2561911,8.3000312 2.1940136,8.2362574 L 1.9001839,7.2249799 q 0.097396,0.053541 0.1826221,0.1215298 0.085226,0.067989 0.151789,0.1468563 z m 0.8414804,0.3611183 q 0.00197,0.1194582 -0.016995,0.2231769 -0.027398,0.1498159 -0.1104448,0.4085522 L 1.5519718,9.9886689 Q 1.5050585,9.9586519 1.4631764,9.9271731 1.4263255,9.8942325 1.3227413,9.7442821 L 3.058516,9.2399474 Q 3.125994,9.0402945 3.128747,9.0122146 3.136527,8.9826726 3.137137,8.7969927 l 0.1459057,-0.042393 q 0.00731,0.025156 0.042698,0.053066 0.035389,0.027909 0.04416,0.058097 z m 6.399375,-4.2717999 q 0.1170111,0.3978841 0.1297464,0.4540917 0.0081,0.035768 -0.1347695,0.116489 Q 9.6253354,5.2389955 9.465696,5.38798 L 9.2817438,5.429659 Q 9.2474117,5.3729726 9.2279301,5.3344098 9.2084486,5.2958471 9.1940768,5.2561265 9.3464911,5.1463838 9.4989054,5.0366411 9.6195033,4.9287351 9.5511961,4.627258 9.5303566,4.5352819 9.4719903,4.3013896 9.4124662,4.0623876 9.3962577,3.9908507 q 0.1799218,0.082793 0.2398028,0.1336901 0.059881,0.050898 0.077247,0.1275444 0.00463,0.020439 0.018724,0.13006 0.014093,0.109621 0.037249,0.2118166 z M 10.872896,6.240261 q -0.133533,0.00339 -0.234092,0.010063 -0.100559,0.00667 -0.166986,0.021719 -0.168623,0.038206 -0.230698,0.1435961 -0.07277,0.1293027 -0.01604,0.379682 0.03242,0.1430739 0.10707,0.3302991 0.07465,0.1872253 0.209866,0.4520548 -0.0618,0.03549 -0.100359,0.054971 -0.03345,0.018324 -0.05389,0.022955 -0.03066,0.00695 -0.07665,0.017366 -0.04599,0.01042 -0.108464,0.019203 Q 9.9624936,7.746584 9.9232518,7.739359 9.8594188,7.694729 9.7842084,7.647305 L 9.7541059,7.5144502 10.12201,7.4310922 Q 10.12931,7.2736465 10.12001,7.2327683 10.09195,7.1800343 10.05115,7.0710919 10.015497,6.9609922 9.9784492,6.7974792 9.9031954,6.4653433 9.9629547,6.3497335 10.021556,6.2290138 10.231057,6.181546 q 0.03577,-0.0081 0.144232,-0.027307 0.108463,-0.019203 0.18,-0.035411 -0.02084,-0.091976 -0.07697,-0.1974448 -0.05729,-0.1105785 -0.104833,-0.2018757 0.194572,0.052613 0.256769,0.1137298 0.09258,0.1240712 0.211381,0.2690602 z M 10.281354,5.9767544 Q 9.867462,6.0705321 9.7435911,6.2114123 9.636686,6.3323322 9.6899425,6.5673821 q 0.017366,0.076647 0.088746,0.2968462 0.07138,0.2201994 0.1061126,0.3734929 L 9.5628852,7.3106595 9.3217245,7.123556 Q 8.9831643,7.4312657 8.7359796,7.5732252 8.5415293,7.6871201 8.3422478,7.7322724 7.6370978,7.8920419 7.0164119,7.4524871 6.4407565,7.0457064 6.2983532,6.4172031 6.206891,6.0135303 6.2494408,5.5848658 6.3062406,5.0294143 6.5689115,4.6475736 6.9010824,4.1694044 7.5040367,4.0327899 7.7493063,3.9772178 8.0158941,3.9920251 8.1847171,4.0021228 8.6920653,4.1074264 L 8.8239187,3.8358072 q 0.1086634,0.029101 0.2110592,0.054249 0.1075057,0.023991 0.1352917,0.1466256 0.01042,0.045988 0.034254,0.1748903 0.022676,0.1237926 0.036569,0.18511 0.020839,0.091976 0.038206,0.1686228 0.017366,0.076647 0.036369,0.1368064 0.034733,0.1532934 -0.016165,0.2131745 Q 9.2655704,4.9552066 9.0144337,5.1034336 8.6877212,4.7047138 8.5087571,4.5787275 8.200969,4.3583713 7.8432842,4.4394138 7.3067571,4.5609775 7.1480402,5.0696836 7.013993,5.4975908 7.1563963,6.126094 7.3045883,6.7801462 7.5865489,7.0761916 7.895895,7.3982647 8.3404461,7.2975405 8.6214841,7.2338642 8.7764926,7.0644407 8.9303432,6.8899073 8.8794022,6.6650769 8.8307767,6.450466 8.6731309,6.394859 8.562152,6.355539 8.3833096,6.396059 8.3373216,6.406479 8.2720521,6.426639 8.2118921,6.445642 8.2016731,6.447957 L 8.1715714,6.3151043 8.2678566,6.0998929 10.025622,5.7016269 q 0.081,0.072973 0.144353,0.1392003 0.05313,0.068542 0.111379,0.1359272 z M 8.5109157,4.825355 Q 8.256863,4.818455 8.0780206,4.858973 7.6845673,4.94812 7.5717167,5.2798986 7.4779477,5.5536332 7.571725,5.9675255 7.63077,6.2281244 7.7627104,6.5259282 7.8533724,6.7363868 7.9746921,6.939899 l 0.031259,0.1379641 Q 7.7914189,7.0082847 7.6675046,6.8644534 7.5213145,6.6934367 7.426379,6.2744346 L 7.3870155,6.1007019 Q 7.1045245,4.853915 7.8709918,4.6802525 8.0191755,4.6466778 8.1608131,4.6790514 8.3012929,4.7063153 8.5109157,4.825355 Z M 8.6552508,6.7427246 8.4253106,6.7948233 Q 8.3580042,6.7348639 8.3271454,6.6935068 8.3013963,6.650992 8.2865457,6.6328684 L 8.6239915,6.6047604 Z M 9.5241657,7.566549 Q 9.3607744,7.7701045 9.1277613,7.903481 8.8947482,8.0368575 8.501295,8.1260042 8.0465243,8.229044 7.7040471,8.1401057 7.3262802,8.0376748 7.0276324,7.6916893 q 0.3735363,0.1785989 0.4998445,0.2144458 0.406789,0.1119714 0.876889,0.00546 0.3219163,-0.072938 0.5412366,-0.2193286 0.22443,-0.147548 0.4386405,-0.2927806 0.051498,0.08503 0.1399227,0.1670647 z m 4.6679523,-3.8894794 -0.366814,0.061841 q -0.07692,-0.1411155 -0.0987,-0.2702754 l 0.237654,-0.040066 q 0.04569,0.018864 0.06293,0.026584 0.06293,0.026584 0.16493,0.2219164 z M 16.13201,3.3022079 q -0.03529,0.011263 -0.08179,0.019102 -0.0465,0.00784 -0.06716,0.011323 -0.093,0.015678 -0.186861,0.026189 -0.0887,0.00964 -0.172233,0.01841 -0.196323,0.033098 -0.261625,0.1184921 -0.08765,0.1104149 -0.04323,0.3739011 l 0.225587,1.3380962 q 0.12281,0.7284617 -0.374072,1.2479152 -0.452186,0.4694125 -1.221979,0.5991903 -0.475308,0.080131 -0.745822,0.051351 -0.351493,-0.03638 -0.71629,-0.2777345 0.346387,0.069121 0.592751,0.080719 0.25153,0.010727 0.571847,-0.043274 0.940284,-0.1585206 1.360481,-0.6916123 0.380668,-0.4839215 0.267439,-1.1555528 L 15.052591,3.6754615 q -0.03919,-0.2324878 0.08892,-0.3550371 0.0963,-0.09062 0.302956,-0.12546 0.093,-0.015678 0.192898,-0.021894 0.0999,-0.00622 0.183437,-0.014985 -0.01394,-0.082662 -0.07275,-0.2108917 -0.08302,-0.1772802 -0.08476,-0.187613 0.232786,0.1201521 0.320101,0.291395 0.09248,0.1703719 0.148619,0.2512327 z M 15.49565,2.9312996 q -0.42881,0.072292 -0.570678,0.2077874 -0.174548,0.1622576 -0.112708,0.5290716 l 0.226458,1.3432626 Q 15.15979,5.7295501 14.709287,6.177426 14.331865,6.5545356 13.649901,6.6695066 12.07415,6.9351594 11.864241,5.6900582 L 11.605556,4.155639 Q 11.56462,3.9128185 11.36109,3.7771076 11.157561,3.6413967 10.919907,3.6814623 q -0.04133,0.00697 -0.06716,0.011323 -0.02067,0.00348 -0.08434,0.035473 0.0084,-0.1395522 0.02367,-0.2377733 0.01445,-0.1033874 0.04527,-0.2042215 l 2.040726,-0.344042 0.240863,0.2941271 0.02352,0.1394927 q -0.175717,-0.00226 -0.294544,0.017777 -0.371981,0.062711 -0.418694,0.415947 -0.03139,0.2550144 0.107095,1.0764712 0.145456,0.8627879 0.325074,1.1087946 0.248701,0.3406247 0.879001,0.2343636 0.697464,-0.117584 0.871476,-0.5666658 0.114866,-0.2956533 0.0086,-0.9259535 -0.01916,-0.1136606 -0.04001,-0.2057848 -0.01568,-0.092995 -0.027,-0.1601582 L 14.509033,4.1071459 Q 14.402772,3.4768457 14.242256,3.3126303 14.08087,3.1432485 13.817383,3.1876692 q -0.0465,0.00784 -0.102456,0.022586 -0.05596,0.014747 -0.115344,0.040698 0.0041,-0.1335148 0.01085,-0.1877918 0.01196,-0.055148 0.06594,-0.2077054 l 1.668737,-0.28133 z m -2.088824,0.8781609 q -0.31515,0.05313 -0.405472,0.1161769 -0.09119,0.05788 -0.05897,0.2490366 l 0.241265,1.4310914 q 0.0052,0.030998 0.06148,0.1755978 0.06055,0.1385621 0.102062,0.2272023 -0.171475,-0.040162 -0.24909,-0.090836 Q 12.936834,5.8120862 12.902865,5.6105968 L 12.628502,3.9831825 q -0.02439,-0.1446591 0.0538,-0.2481656 0.07819,-0.1035066 0.253845,-0.1331204 0.08783,-0.014807 0.225639,-0.016787 0.137811,-0.00198 0.158476,-0.00546 z M 11.3661,4.1535025 10.99412,4.216214 Q 10.98632,4.201586 10.93537,4.119854 10.8844,4.038122 10.85409,3.9529065 l 0.325483,-0.054873 q 0.08888,0.085968 0.117383,0.1289812 0.02763,0.037847 0.06914,0.1264873 z m 10.810027,-1.54196 q -0.870398,0.08926 -1.48582,0.8159864 -0.568646,0.6692615 -0.501835,1.3207571 0.01229,0.1198752 0.04169,0.2011287 l -0.145935,0.014966 Q 19.938962,4.831808 19.891789,4.7313101 q -0.04717,-0.1004978 -0.06748,-0.2985525 -0.008,-0.07818 0.19325,-0.4780276 0.270762,-0.5439111 0.64576,-0.8931075 0.528419,-0.4965992 1.200762,-0.5655487 -0.0139,-0.1355111 -0.04183,-0.2537828 -0.03996,-0.1328387 -0.04998,-0.1792119 0.193109,0.085532 0.23026,0.1396568 0.05399,0.1155992 0.158627,0.2628718 z m -2.271747,0.0855 q -0.03969,0.1778743 -0.08072,0.2400163 -0.03582,0.061608 -0.09315,0.067487 -0.0417,0.00428 -0.06829,0.00174 -0.138184,-0.012163 -0.185092,-0.00735 -0.06776,0.00695 -0.118806,0.022717 -0.05158,0.010557 -0.117203,0.038353 0.07323,0.097825 0.151145,0.1899044 0.04397,0.069226 0.08753,0.1858943 -0.02085,0.00214 -0.04998,0.026193 -0.02913,0.024055 -0.04998,0.026193 Q 19.312078,3.4951329 19.12338,3.298546 18.893924,3.064005 18.867199,2.8034067 Z M 21.541876,2.2815773 Q 21.005043,2.33663 20.51685,2.8659715 20.142519,3.273034 19.862001,3.8758802 q -0.232807,0.5031514 -0.217307,0.6542984 0.05024,0.4899247 0.251235,0.6009821 0.13992,0.080453 0.608997,0.032349 -0.03983,0.1252201 -0.09061,0.2462972 -0.04557,0.1205427 -0.07203,0.1706573 L 18.184527,5.8017439 Q 18.113834,5.6773241 18.072941,5.5867157 18.032048,5.4961073 17.993161,5.3736926 18.430966,5.3287952 18.562068,5.2205486 18.75665,5.0636578 18.709614,4.6050049 18.684493,4.3600425 18.370579,3.9182248 18.013766,3.4176049 17.582915,3.1194486 17.038738,2.7433787 16.543601,2.7941555 l -0.01497,-0.145935 0.115067,-0.2646057 2.308901,-0.2367801 q 0.125486,0.1451346 0.150609,0.1846924 0.03408,0.075507 0.08285,0.1916407 l -0.63586,0.065208 q -0.01591,0.1016998 -0.0266,0.2028651 0.0096,0.093815 0.282108,0.4398128 0.320597,0.404265 0.610327,0.5588901 0.114397,-0.1170671 0.391304,-0.4983383 0.350143,-0.4888504 0.336781,-0.6191495 -0.0155,-0.151147 -0.140186,-0.1857614 -0.120009,-0.040361 -0.323275,-0.019516 -0.05212,0.00534 -0.103705,0.015902 -0.04691,0.00481 -0.09382,0.00962 l 0.152221,-0.4158856 1.719948,-0.1763825 0.171591,0.2352086 z m -4.114519,0.9644263 -0.588953,0.060398 q -0.06321,-0.051452 -0.110251,-0.099296 -0.04704,-0.047844 -0.107712,-0.1258902 0.07337,-0.054925 0.108249,-0.074302 0.05934,-0.037686 0.12188,-0.0441 0.114663,-0.011759 0.269685,0.061879 0.159699,0.067891 0.307102,0.2213112 z m 3.500802,2.2954451 q 0.01657,0.1615709 -0.07618,0.3870203 -0.029,0.076709 -0.100633,0.1999241 l -2.261993,0.2319697 -0.160499,-0.1784114 -0.01497,-0.145935 2.199449,-0.2255558 q 0.05653,-0.1163997 0.125893,-0.3131168 0.05025,-0.1262891 0.07404,-0.2024636 0.08085,0.018042 0.166916,0.03555 0.03034,0.039023 0.04797,0.2110181 z m 5.940968,-3.0991999 0.0089,0.2303567 q 0.0089,0.2303567 -0.02611,0.2736582 -0.217455,0.071335 -0.575015,0.3158767 l -0.141355,0.00547 q -0.0276,-0.035634 -0.05539,-0.076504 -0.02277,-0.046308 -0.05178,-0.11859 0.256095,-0.1567226 0.517426,-0.3136478 0.101668,-0.082583 0.09275,-0.3129401 -0.0032,-0.083766 -0.01739,-0.3139202 -0.01415,-0.230154 -0.0178,-0.3243909 0.161519,0.1090992 0.211272,0.1753354 0.05479,0.060798 0.05782,0.1393289 0.0016,0.041883 0.0032,0.083766 -0.0078,0.2047877 -0.0066,0.2362 z m -1.388389,0.027522 q -0.465949,0.018035 -0.558328,0.2051232 -0.07526,0.2231282 -0.136629,0.39853 l -0.193709,0.0075 -0.0073,-0.1884736 q 0.08309,-0.2915934 0.10221,-0.3395224 0.08674,-0.1973565 0.395626,-0.2093122 0.188474,-0.0073 0.22573,0.00699 0.07552,0.054752 0.172395,0.1191647 z m 0.285644,1.28402 q 0.0049,0.1256491 0.0091,0.2355921 0.0041,0.1047076 0.01273,0.1935064 0.0075,0.193709 -0.04928,0.2168796 -0.159865,0.069106 -0.31973,0.1382127 l -0.24809,-0.04283 q 0.162467,-0.1373689 0.330168,-0.2749405 0.08937,-0.1292966 0.05067,-1.1292541 0.123656,0.079105 0.168983,0.1664857 0.04533,0.08738 0.04999,0.2077941 0.0024,0.062825 -0.0038,0.1731728 -0.0012,0.1049102 -7.77e-4,0.115381 z m 0.781855,1.5060021 -3.59147,0.1390101 Q 22.884452,5.2914946 22.833686,5.1990815 22.787953,5.1012304 22.746442,4.9769998 23.26998,4.9567359 23.408667,4.7468822 23.592042,4.4723802 23.554554,3.503835 23.523955,2.7132927 23.388985,2.4773285 23.22017,2.1797557 22.691397,2.2002222 q 0.03962,-0.1955328 0.07826,-0.28092 -2.03e-4,-0.00524 0.09339,-0.1609115 l 3.497233,-0.1353626 0.03708,0.9580745 q -0.163885,0.1007213 -0.220055,0.1395979 -0.05114,0.033439 -0.158042,0.1162248 l -0.188473,0.0073 Q 25.735448,2.4127234 25.529209,2.23195 25.328002,2.0457385 25.034821,2.0570863 q -0.308888,0.011956 -0.485,0.3386088 -0.05857,0.1123747 -0.155544,0.4516944 l 0.02047,0.5287733 0.335064,-0.012969 q 0.167296,-0.1480423 0.197088,-0.1911412 0.03503,-0.043302 0.03118,-0.1427737 -0.0018,-0.047118 -0.0095,-0.1097403 -0.0024,-0.062825 -0.0055,-0.1413553 0.126865,0.026549 0.174591,0.040431 0.04752,0.00865 0.164323,0.046072 l 0.0462,1.1936665 Q 25.205655,4.1687343 25.0186,4.212677 25.00624,3.8933188 24.95649,3.8270826 24.85982,3.7679056 24.762748,3.6982577 l -0.335064,0.012969 q 0.0073,0.1884737 -0.0052,0.2728477 -0.01831,0.06887 -0.03682,0.1325056 0.01439,0.3717119 0.210966,0.5738321 0.196579,0.2021202 0.536879,0.1889487 0.439772,-0.017022 0.627977,-0.302197 0.06924,-0.1075446 0.207863,-0.5900433 0.22171,0.038608 0.312535,0.082281 0.04269,0.01932 0.22556,0.1380798 z M 23.239049,2.8029685 q -0.1321,-0.026346 -0.264201,-0.052693 -0.137943,-0.04185 -0.221743,-0.1749301 l -0.0055,-0.1413553 q 0.02618,-0.00101 0.103492,-0.035465 0.01027,-0.00564 0.03604,-0.017125 0.08377,-0.00324 0.143179,0.041647 0.06465,0.044687 0.20303,0.2333299 z m 1.702166,1.847893 Q 24.744669,4.5850635 24.73359,4.5697625 24.71505,4.4970755 24.64212,4.3740603 l -0.01662,-0.4293011 0.277475,-0.01074 q -0.08231,0.1762124 -0.07684,0.3175677 0.0032,0.083766 0.03891,0.1924932 0.03546,0.1034917 0.07616,0.2067809 z M 27.045124,5.7701264 23.212826,5.9184579 23.063973,5.7302201 23.058473,5.5888648 26.74418,5.4462073 26.6996,4.2944238 q 0.158683,0.035804 0.244678,0.090151 0.02679,0.014693 0.04874,0.040059 z M 30.756561,2.5357509 30.59437,2.5256761 q -0.166334,-0.04689 -0.287496,-0.2025075 0.07425,-0.029237 0.148508,-0.058474 0.115214,0.00343 0.22082,0.1533459 0.04018,0.058855 0.08036,0.1177104 z m 2.113622,-0.041847 q -0.597015,-0.017791 -0.75787,0.1032146 -0.20908,0.1562598 -0.227651,0.7794599 -0.0096,0.1464792 -0.02405,0.4553047 -0.0091,0.3037445 -0.01951,0.6546218 -0.01467,0.4922757 -0.01496,0.8539391 -1.38e-4,0.3564264 0.02707,0.4987611 -0.07394,0.018763 -0.163439,0.031821 -0.0841,0.00798 -0.152184,0.00595 -0.04713,-0.0014 -0.0995,-0.00297 -0.04713,-0.0014 -0.104583,-0.00836 -0.09427,-0.00281 -0.193924,-5.373e-4 -0.0995,-0.00297 -0.204398,-8.494e-4 -0.125688,-0.00375 -0.161098,-0.046734 -0.03017,-0.042832 -0.10741,-0.2652821 l 0.879811,0.026218 q 0.07198,-0.1288956 0.07869,-0.3540856 7.8e-4,-0.026185 -0.01276,-0.4511601 -0.0083,-0.4248192 -6.59e-4,-0.681431 0.03121,-1.047395 0.146719,-1.4056251 0.09792,-0.2958545 0.361022,-0.3299473 0.263097,-0.034093 0.557616,-0.067249 -0.04956,-0.095826 -0.08388,-0.1754732 -0.02892,-0.084728 -0.05754,-0.1799299 0.159693,0.093867 0.205109,0.1528777 0.05972,0.1066123 0.135312,0.2084557 z M 30.767799,3.7416597 Q 30.656019,3.6230129 30.199586,2.9332416 29.723142,2.2114242 29.559685,1.8920557 q 0.180329,0.1049646 0.367387,0.3359288 0.131323,0.1664038 0.371462,0.550957 0.240138,0.3845531 0.475196,0.7637132 z m 1.55772,-1.6151755 q -0.544645,-0.01623 -0.768881,0.2968266 -0.153189,0.2155833 -0.165674,0.6345413 l -0.06742,2.2623732 -0.853627,-0.025438 -1.8305,-2.7749522 -0.0995,-0.00297 -0.05259,1.7648606 q 0.149081,0.4499808 0.225607,0.5204024 0.107323,0.092306 0.557703,0.1057271 -0.02884,0.088248 -0.05768,0.1764965 -0.02173,0.025561 -0.104652,0.169855 L 27.348681,5.201775 q -0.0088,-0.057919 -0.0172,-0.1263116 -0.0084,-0.068393 -0.02088,-0.1788375 0.34134,-0.021278 0.539634,-0.1673759 0.225103,-0.1662656 0.233842,-0.4595362 l 0.04947,-1.6601211 Q 28.141038,2.3582179 27.97368,2.1697738 27.770756,1.9435784 27.398931,1.9324981 l 0.162328,-0.3463516 1.503012,0.04479 1.923361,2.8248941 0.03005,-0.8325229 q 0.02154,-0.7227026 -0.0089,-0.933274 -0.08679,-0.6053733 -0.741415,-0.6248809 0.05814,-0.1922075 0.08605,-0.2490339 0.03314,-0.05667 0.07245,-0.1446065 l 1.759624,0.052436 q 0.03924,0.090277 0.07849,0.1805541 0.01939,0.052994 0.06153,0.2219818 z m -4.49119,0.3221847 -0.298508,-0.0089 q -0.02986,-0.053306 -0.0659,-0.075346 -0.03603,-0.02204 -0.03432,-0.079647 0.0011,-0.036659 0.01743,-0.057139 0.02157,-0.020324 0.03791,-0.040803 0.109196,0.029462 0.170792,0.073231 0.09224,0.07089 0.172595,0.1886002 z m 1.140051,2.1987647 q -0.137185,-0.145612 -0.172283,-0.1990741 -0.02384,-0.079335 -0.0634,-0.1591381 l 0.03137,-1.0526319 q 0.07621,0.080896 0.136405,0.1717968 0.06019,0.090901 0.09928,0.1864153 z m 0.689669,0.6023725 q -0.03486,0.114277 -0.0848,0.2071381 -0.07214,0.1341325 -0.230721,0.3547967 l -1.759623,-0.052436 q -0.03541,-0.042988 -0.06558,-0.08582 -0.02494,-0.042676 -0.07739,-0.2172129 l 1.806756,0.053841 q 0.125601,-0.1692308 0.136855,-0.1951036 0.01649,-0.025717 0.07417,-0.2022132 l 0.151872,0.00453 q -7.8e-4,0.026185 0.02431,0.063624 0.02509,0.037439 0.02416,0.068861 z M 40.037593,4.5575105 q -0.09521,0.6744216 -0.452378,1.1055029 -0.408923,0.4978523 -1.000339,0.41436 L 36.099892,5.7265596 Q 35.923505,5.7016584 35.84471,5.5476708 35.773239,5.3418047 35.734544,5.2410994 35.979776,5.2280985 36.230197,5.21583 36.556849,5.1508283 36.600792,4.8395568 L 36.859325,3.008243 q 0.03808,-0.2697686 -0.179989,-0.4116711 -0.251337,-0.093686 -0.496753,-0.1918272 0.04138,-0.068236 0.08203,-0.1312835 0.04657,-0.067503 0.153804,-0.189937 l 2.490172,0.3515463 q 0.58104,0.082027 0.899759,0.5979435 0.361808,0.5854943 0.229246,1.5244965 z m 0.450917,0.2541426 q -0.112788,0.7989301 -0.650553,1.3473796 -0.531845,0.543994 -1.086946,0.4656285 l -2.723625,-0.3845037 -0.118894,-0.2072697 0.01977,-0.1400722 2.770316,0.3910952 q 0.466907,0.065915 0.897498,-0.3230535 0.503831,-0.4579975 0.626873,-1.3295577 l 0.02783,-0.1971386 q 0.05859,-0.4150286 0.03821,-0.6454304 -0.03168,-0.3378209 -0.227169,-0.7146417 0.344963,0.2550584 0.436881,0.7283737 0.07696,0.3918354 -0.01019,1.0091905 z M 36.584369,2.9694264 36.210843,2.9166945 q -1.22e-4,-0.074095 -0.0068,-0.1014989 -0.006,-0.032592 -0.01868,-0.092588 l 0.292656,-0.011597 q 0.052,0.081419 0.06317,0.114743 0.0119,0.028136 0.04321,0.1436729 z m 2.523804,1.4251272 q 0.09741,-0.6899852 0.04065,-0.962561 -0.10382,-0.5014518 -0.664109,-0.5805497 -0.33721,-0.047605 -0.51616,0.1705294 -0.178218,0.2129467 -0.306386,1.1208219 -0.01245,0.088194 -0.03009,0.1756548 -0.01245,0.088194 -0.0249,0.1763871 -0.08569,0.6069794 0.05695,0.8334747 0.130002,0.2035466 0.436086,0.2467575 0.50841,0.071774 0.764872,-0.3206117 0.16186,-0.2470034 0.223381,-0.6827835 0.0088,-0.062254 0.01831,-0.1296964 -0.0023,-0.021484 0.0014,-0.047423 z M 38.91683,3.3886594 q -0.195735,-0.075254 -0.325432,-0.093564 -0.223077,-0.031493 -0.325125,0.091673 -0.09686,0.1238985 -0.140803,0.43517 -0.01831,0.1296965 -0.05896,0.6425009 -0.04065,0.5128044 -0.09558,0.9018937 -0.217402,-0.1841377 -0.237178,-0.4938221 -0.01141,-0.1815139 0.06329,-0.7106754 0.08203,-0.5810401 0.177971,-0.8108929 0.174189,-0.4092918 0.521776,-0.3602218 0.129696,0.01831 0.254388,0.1470292 0.12988,0.1294518 0.165646,0.2509086 z m 5.52474,1.0106975 -0.363291,-0.079978 q -0.0185,-0.159651 0.0097,-0.2875703 l 0.235372,0.051817 q 0.0353,0.034595 0.0484,0.048208 0.0484,0.048208 0.06986,0.2675231 z m 1.939162,0.3786193 q -0.03694,-0.00277 -0.083,-0.012906 -0.04605,-0.010138 -0.06652,-0.014644 -0.0921,-0.020276 -0.183077,-0.045669 -0.08586,-0.024266 -0.166601,-0.047406 -0.194437,-0.042805 -0.286959,0.011933 -0.122612,0.069573 -0.180061,0.3305285 L 45.122772,6.3250572 Q 44.963943,7.0465224 44.308729,7.3421888 43.713695,7.6081855 42.951295,7.440345 42.480552,7.336712 42.240484,7.2087548 41.928169,7.0434339 41.680253,6.6830645 q 0.295323,0.1937687 0.51943,0.296753 0.229224,0.1041107 0.546464,0.1739504 0.931253,0.2050132 1.520464,-0.1320074 0.534148,-0.3062243 0.680586,-0.971405 l 0.292876,-1.3303614 q 0.05069,-0.2302548 0.215363,-0.295933 0.123222,-0.04798 0.327893,-0.00292 0.0921,0.020276 0.187068,0.051912 0.09497,0.031636 0.175708,0.054776 0.01802,-0.081868 0.01149,-0.2227897 -0.01062,-0.1954683 -0.0084,-0.2057019 0.170878,0.1985611 0.187737,0.3900391 0.02197,0.1926045 0.04376,0.2886012 z M 45.929501,4.1958103 q -0.424693,-0.093495 -0.606968,-0.020963 -0.222599,0.085114 -0.302576,0.4484054 L 44.727081,5.9536145 Q 44.570505,6.6648461 43.985093,6.9115021 43.49394,7.1198968 42.818526,6.9712059 41.25791,6.6276398 41.529383,5.3944971 l 0.334555,-1.519682 q 0.05294,-0.2404884 -0.08498,-0.4425244 -0.137924,-0.2020359 -0.373296,-0.2538524 -0.04093,-0.00901 -0.06652,-0.014644 -0.02047,-0.00451 -0.09149,0.00132 0.05999,-0.1262775 0.110965,-0.2116208 0.0521,-0.09046 0.11843,-0.1724239 l 2.021126,0.4449463 0.113238,0.3629088 -0.03041,0.1381529 Q 43.418906,3.6592046 43.30122,3.6332956 42.932812,3.5521916 42.757258,3.8622529 42.63268,4.086971 42.453575,4.9005382 q -0.188117,0.8545013 -0.113656,1.1498612 0.1031,0.4089598 0.727347,0.5463863 0.690764,0.1520702 1.020242,-0.199212 0.217195,-0.2311524 0.354621,-0.8553989 0.02478,-0.1125691 0.03994,-0.2057975 0.02028,-0.092102 0.03492,-0.15862 l 0.05745,-0.2609555 q 0.137427,-0.6242464 0.05006,-0.8366115 -0.08624,-0.2174818 -0.347196,-0.2749306 -0.04605,-0.010138 -0.103462,-0.017412 -0.05741,-0.00727 -0.122192,-0.00544 0.05374,-0.1222871 0.08036,-0.1700755 0.03173,-0.046662 0.138897,-0.1679182 l 1.652714,0.363839 z m -2.265681,0.032327 q -0.312123,-0.068713 -0.41948,-0.044065 -0.10623,0.019532 -0.147908,0.2088523 l -0.312026,1.4173466 q -0.0068,0.030701 -0.0087,0.1858458 0.0043,0.1511548 0.0096,0.2488889 Q 42.64129,6.1435681 42.588289,6.067523 42.478297,5.9091896 42.522228,5.7096354 l 0.354831,-1.6117839 q 0.03154,-0.1432697 0.142792,-0.2099789 0.111252,-0.066709 0.285222,-0.02841 0.08698,0.01915 0.215515,0.068904 0.128531,0.049755 0.148998,0.05426 z M 41.642694,3.7831908 41.274287,3.7020867 q -0.0017,-0.016477 -0.01841,-0.1113471 -0.01667,-0.09487 -0.01287,-0.1852348 l 0.322357,0.070966 q 0.05023,0.1129889 0.06056,0.1635457 0.01146,0.04544 0.01676,0.1431741 z m 8.438809,2.3170422 q -0.02705,0.090346 -0.05109,0.1706529 -0.02254,0.075288 -0.03555,0.1370211 -0.04358,0.1455569 -0.194121,0.1551781 -0.145526,0.011124 -0.292554,0.027267 l -0.180691,-0.054094 0.01394,-0.1927122 q 0.262438,-0.036283 0.32967,-0.059908 0.147508,-0.054283 0.239168,-0.3604541 0.03005,-0.100384 0.05208,-0.1922323 0.02855,-0.095365 0.05409,-0.1806913 l 0.01953,-0.06525 q 0.114482,0.1108396 0.131553,0.1268885 0.05675,0.06621 0.0312,0.1515359 -0.01352,0.045173 -0.06113,0.1676477 -0.04108,0.1189582 -0.05611,0.1691502 z M 48.891858,5.5800122 q -0.121484,-0.069183 -0.221868,-0.099236 -0.276056,-0.082644 -0.447574,0.1066457 -0.1665,0.1907925 -0.303238,0.6475399 -0.09466,0.3162097 -0.12814,0.5741716 -0.03197,0.2529427 -0.0493,0.6579327 -0.204379,-0.2307263 -0.203607,-0.635205 0.0018,-0.3166583 0.131051,-0.7483097 0.109691,-0.3664017 0.303749,-0.6309796 0.268772,-0.3679986 0.569924,-0.2778414 0.08031,0.024042 0.18475,0.1318763 0.110966,0.1043178 0.164257,0.2734052 z m 0.32623,1.8149463 Q 49.114407,7.7412835 48.753725,7.9778543 48.263117,8.301317 47.600582,8.1029711 46.92299,7.9001173 46.634087,7.2940677 46.331118,6.6619307 46.579051,5.8337623 46.786413,5.1411124 47.325167,4.766435 47.91258,4.3571031 48.590172,4.5599569 q 0.260999,0.078136 0.491465,0.2947963 0.231969,0.2116408 0.267103,0.2221591 0.01506,0.00451 0.135967,-0.052269 0.03763,-0.01608 0.120909,-0.056777 0.106458,0.1193754 0.212915,0.2387507 0.04319,0.056682 0.01314,0.1570665 -0.01953,0.06525 -0.04258,0.1239775 -0.01803,0.06023 -0.03606,0.1204608 l -0.01503,0.050192 q -0.04207,0.1405376 -0.05959,0.2173283 -0.011,0.073274 -0.025,0.1565865 -0.01052,0.035134 -0.134465,0.04725 -0.118926,0.013618 -0.260424,0.047824 Q 49.130317,5.7334365 49.008645,5.3360539 48.851902,5.0375526 48.585884,4.9579137 48.304809,4.873767 47.949176,5.1665403 q -0.326539,0.2686686 -0.494833,0.8308193 -0.180314,0.6023043 -0.121335,1.062954 0.07461,0.5911177 0.551435,0.7338666 0.406555,0.1217123 0.714041,-0.1198463 0.23971,-0.289194 0.485943,-0.5819046 0.09034,0.027047 0.123017,0.1188641 0.03919,0.0883 0.01064,0.1836651 z m 0.349519,0.4218417 q -0.14876,0.4969011 -0.694099,0.7656953 -0.545339,0.2687942 -1.268104,0.052417 -0.436671,-0.130728 -0.664132,-0.3574264 -0.147122,-0.1479565 -0.351084,-0.5262223 0.182768,0.1750352 0.370556,0.3515729 0.197314,0.1629828 0.508504,0.2561453 0.562151,0.1682935 1.07894,-0.00514 0.597066,-0.2040874 0.873225,-0.8159815 0.06877,0.026056 0.134527,0.06215 0.06726,0.031075 0.01167,0.2167855 z"
       id="text1"
       style="font-size:5.2393px;font-family:'Shadowed Serif';-inkscape-font-specification:'Shadowed Serif, Normal';text-align:center;letter-spacing:0.00534407px;text-anchor:middle;fill:#000080;fill-opacity:0.592157;stroke:#ff0000;stroke-width:0.079375;stroke-linecap:round;stroke-linejoin:round;stroke-dasharray:none;paint-order:fill markers stroke"
       transform="translate(1.2115204)"
       aria-label="nguyen duc " />
    <path
       id="text3"
       style="font-size:3.52465px;font-family:'Bucklane Script PERSONAL USE';-inkscape-font-specification:'Bucklane Script PERSONAL USE, Normal';text-align:center;letter-spacing:0.00359514px;text-anchor:middle;fill:#ff0000;fill-opacity:0.592157;stroke:#000080;stroke-width:0.132292;stroke-linecap:round;stroke-linejoin:round;stroke-dasharray:none;paint-order:fill markers stroke"
       d="m 17.670763,9.6710611 c 0,0.1508162 -0.03279,0.2917965 -0.09836,0.4229409 -0.0459,0.09508 -0.131144,0.218028 -0.255732,0.368844 -0.0098,-0.0065 -0.04754,-0.02948 -0.113112,-0.06885 -0.0459,-0.02623 -0.06885,-0.05573 -0.06885,-0.08852 0.08197,-0.104916 0.154095,-0.216389 0.216389,-0.3344188 0.06557,-0.1213087 0.09836,-0.2606497 0.09836,-0.4180232 0,-0.1114728 -0.01311,-0.2049133 -0.03934,-0.2803214 -0.02623,-0.078687 -0.07213,-0.1819631 -0.137702,-0.309829 0.134423,0.088523 0.234421,0.1901596 0.299993,0.3049111 0.06557,0.1114729 0.09836,0.245896 0.09836,0.4032694 z m -0.40327,1.4901299 c 0,0.295075 -0.07213,0.516382 -0.216388,0.663919 -0.140981,0.147538 -0.326222,0.221307 -0.555725,0.221307 h -2.896655 c -0.03935,-0.0459 -0.07869,-0.09344 -0.11803,-0.14262 -0.04262,-0.06885 -0.07869,-0.172127 -0.108195,-0.309829 0.104916,0.01967 0.195078,0.02951 0.270486,0.02951 0.203274,0 0.342615,-0.07377 0.418023,-0.221306 0.05574,-0.108194 0.08361,-0.291796 0.08361,-0.550807 0,-0.04918 -0.0016,-0.129506 -0.0049,-0.240978 -0.0033,-0.114751 -0.0049,-0.203274 -0.0049,-0.265568 V 10.00548 c 0,-0.3934338 -0.03443,-0.6540837 -0.103276,-0.7819496 -0.09508,-0.1737665 -0.299993,-0.2606498 -0.61474,-0.2606498 0.02623,-0.101637 0.04426,-0.1688486 0.0541,-0.2016347 0.0098,-0.032786 0.02295,-0.07049 0.03934,-0.1131122 h 2.763871 c 0.262289,0 0.49671,0.098358 0.703263,0.2950752 0.163931,0.1540949 0.245896,0.3491724 0.245896,0.5852325 0,0.1901596 -0.0541,0.3475331 -0.162292,0.4721206 -0.07213,0.08524 -0.198356,0.178684 -0.378679,0.280321 0.154095,0.137702 0.309829,0.275404 0.467202,0.413106 0.07869,0.09508 0.11803,0.250813 0.11803,0.467202 z M 13.874128,9.4202472 c -0.03607,0.00656 -0.06393,0.011478 -0.0836,0.014754 -0.01639,0.00328 -0.04918,0.00492 -0.09836,0.00492 H 13.56922 c -0.0459,-0.00984 -0.08033,-0.016393 -0.103276,-0.019672 0,-0.052458 -0.01639,-0.1131124 -0.04918,-0.1819631 0.05246,-0.013115 0.104918,-0.027868 0.157373,-0.044261 0.06885,0 0.132784,0.029507 0.191799,0.088522 0.05574,0.072129 0.0918,0.1180301 0.108194,0.1377018 z m 3.894993,2.0163468 c 0,0.304911 -0.144259,0.575397 -0.432777,0.811457 -0.242617,0.199995 -0.460645,0.299993 -0.654083,0.299993 h -2.901573 c -0.02295,-0.03279 -0.04754,-0.07213 -0.07377,-0.11803 -0.02623,-0.04918 -0.04754,-0.1 -0.06393,-0.152455 h 2.990095 c 0.291797,0 0.511464,-0.101637 0.659002,-0.304911 0.127866,-0.177045 0.191799,-0.413106 0.191799,-0.708181 0,-0.108194 -0.01148,-0.224585 -0.03443,-0.349172 -0.01967,-0.127866 -0.04918,-0.249175 -0.08852,-0.363926 0.154095,0.154095 0.260649,0.291796 0.319664,0.413105 0.05901,0.121309 0.08852,0.278682 0.08852,0.47212 z M 16.362596,9.5825386 c 0,-0.1737665 -0.06229,-0.3049111 -0.186881,-0.3934337 C 16.051128,9.0973039 15.879,9.0514032 15.659333,9.0514032 c -0.177045,0 -0.304911,0.02459 -0.383598,0.073769 -0.06229,0.039343 -0.154094,0.1377017 -0.275403,0.2950752 v 0.5901506 h 0.998338 l 0.265567,-0.1475378 c 0.06557,-0.052458 0.09836,-0.1458985 0.09836,-0.2803214 z m 0.0836,1.5589804 c 0,-0.137701 -0.03607,-0.250813 -0.108194,-0.339336 -0.08852,-0.111473 -0.26065,-0.209832 -0.516381,-0.295075 h -0.821293 v 0.68359 c 0.08852,0.157374 0.160652,0.259011 0.216388,0.304911 0.114752,0.09508 0.283601,0.14262 0.506546,0.14262 0.219667,0 0.395073,-0.0459 0.526218,-0.137702 0.131144,-0.0918 0.196716,-0.21147 0.196716,-0.359008 z M 16.136371,9.4645085 c -0.373761,0 -0.58851,0.014754 -0.644247,0.044261 -0.05246,0.029507 -0.07869,0.1360623 -0.07869,0.3196648 H 15.187213 V 9.4645085 c 0.08852,-0.068851 0.147538,-0.1131122 0.177045,-0.1327839 0.09508,-0.062293 0.199996,-0.09344 0.314747,-0.09344 0.07213,0 0.157373,0.019672 0.255732,0.059015 0.05246,0.026229 0.104918,0.050818 0.157373,0.073769 0.01967,0.052458 0.03443,0.083605 0.04426,0.093441 z m 0.03934,1.4458685 c -0.01639,0.0033 -0.04426,0.0065 -0.08361,0.0098 -0.03607,0.0033 -0.06721,0.0049 -0.09344,0.0049 -0.02951,0 -0.07869,-0.0016 -0.147538,-0.0049 -0.06885,-0.0033 -0.104915,-0.0049 -0.108194,-0.0049 -0.07213,0 -0.124587,0.0033 -0.157374,0.0098 -0.03279,0.0033 -0.09016,0.0131 -0.172127,0.02951 v 0.457367 c -0.121309,-0.06885 -0.190159,-0.119669 -0.206552,-0.152456 -0.01639,-0.06557 -0.03934,-0.134424 -0.06885,-0.206552 V 10.68902 h 0.639329 c 0.04262,0.01639 0.09344,0.03115 0.152456,0.04426 0.05901,0.01311 0.140979,0.07213 0.245896,0.177045 z m 4.667208,-1.5294732 c -0.173766,-0.049179 -0.314746,-0.073769 -0.422941,-0.073769 -0.154095,0 -0.265567,0.045901 -0.334418,0.1377018 -0.07869,0.1049156 -0.118031,0.3475331 -0.118031,0.7278524 0.01311,0.521299 0.01967,0.844243 0.01967,0.96883 v 0.137702 c -0.0098,0.06885 -0.01639,0.122948 -0.01967,0.162291 -0.07213,-0.05901 -0.11639,-0.09672 -0.132783,-0.113112 -0.06557,-0.06885 -0.09836,-0.147537 -0.09836,-0.23606 V 9.680897 c 0,-0.1934382 0.05574,-0.3344186 0.16721,-0.4229412 0.08852,-0.068851 0.203273,-0.1032763 0.344254,-0.1032763 0.04918,0 0.09836,0.00492 0.147538,0.014754 0.04918,0.00656 0.09508,0.016396 0.137701,0.029508 0.01639,-0.081965 0.02459,-0.1409804 0.02459,-0.1770451 0,-0.016393 -0.0049,-0.040983 -0.01475,-0.073769 -0.02295,-0.07213 -0.03934,-0.1344232 -0.04918,-0.186881 0.114751,0.068851 0.183602,0.1245873 0.206553,0.1672093 0.0459,0.1049156 0.09344,0.2098312 0.142619,0.3147469 z m -2.331094,0.034425 h -0.270481 c -0.06885,-0.0459 -0.109834,-0.088522 -0.122948,-0.1278655 V 9.1497616 h 0.167209 c 0.0459,0.042622 0.09344,0.083605 0.142619,0.122948 0.0098,0.013115 0.0377,0.060655 0.08361,0.1426197 z m 1.799959,2.2524082 c -0.03607,0.06229 -0.06721,0.119669 -0.09344,0.172127 -0.01311,0.02623 -0.04098,0.08524 -0.0836,0.177045 h -2.016348 c -0.02295,-0.0459 -0.04754,-0.0918 -0.07377,-0.137703 -0.02295,-0.0459 -0.04426,-0.08524 -0.06393,-0.11803 v -0.137701 c 0.02951,0.0065 0.05737,0.0098 0.0836,0.0098 h 0.08361 c 0.245896,0 0.408187,-0.104916 0.486874,-0.314747 0.05574,-0.144259 0.08361,-0.396712 0.08361,-0.757359 v -0.280322 -0.201635 c 0,-0.06885 0.0016,-0.1360624 0.0049,-0.2016347 0,-0.3475331 -0.03279,-0.5819539 -0.09836,-0.7032626 -0.08852,-0.1606521 -0.273764,-0.2409781 -0.555725,-0.2409781 0.01967,-0.055737 0.03771,-0.1081945 0.0541,-0.1573734 0.01967,-0.052458 0.04262,-0.1016372 0.06885,-0.1475376 h 2.036019 c 0.01311,0.059015 0.02787,0.1180297 0.04426,0.1770451 0.01639,0.055737 0.02951,0.1114731 0.03934,0.1672093 -0.324583,0 -0.529496,0.063933 -0.61474,0.1917988 -0.11803,0.1770451 -0.177045,0.6049042 -0.177045,1.2835772 0,0.567201 0.0459,0.916373 0.137702,1.047517 0.08197,0.114752 0.299993,0.172128 0.654083,0.172128 z m 0.26065,0.349172 c 0,0.06229 -0.02787,0.152455 -0.0836,0.270486 -0.04262,0.08852 -0.08524,0.175404 -0.127866,0.260649 h -2.075362 c -0.01967,-0.05573 -0.03935,-0.11147 -0.05902,-0.167209 -0.0065,-0.01967 -0.01801,-0.06557 -0.03443,-0.137702 h 2.036019 c 0.07213,-0.131144 0.145898,-0.263928 0.221307,-0.398351 0.05246,0.02951 0.08525,0.04918 0.09836,0.05902 0.01639,0.0098 0.02459,0.04754 0.02459,0.113112 z M 27.01501,9.3563137 c -0.03607,0 -0.0918,-0.00164 -0.167209,-0.00492 -0.07541,-0.00328 -0.129505,-0.00492 -0.162292,-0.00492 -0.173766,0 -0.296714,0.02459 -0.368844,0.073769 -0.09836,0.065572 -0.147537,0.1934379 -0.147537,0.3835978 0,0.4426125 0.0033,0.7737535 0.0098,0.9934205 0.0098,0.216389 0.01967,0.434416 0.02951,0.654083 -0.11803,-0.104915 -0.193438,-0.206552 -0.226224,-0.304911 -0.02951,-0.09836 -0.04426,-0.247535 -0.04426,-0.447531 V 10.35957 c 0,-0.04262 -0.0016,-0.08688 -0.0049,-0.132784 v -0.147538 c 0,-0.3639257 0.04262,-0.6114609 0.127865,-0.7426055 0.07541,-0.1180301 0.1918,-0.1770451 0.349173,-0.1770451 0.04918,0 0.09836,0.00492 0.147537,0.014754 0.05246,0.00984 0.114754,0.027868 0.186881,0.054097 0.0065,-0.032786 0.01145,-0.062294 0.01475,-0.088523 0.0065,-0.026229 0.0098,-0.054097 0.0098,-0.083605 0,-0.055737 -0.02131,-0.1327841 -0.06393,-0.2311422 0.104915,0.055737 0.180323,0.1344234 0.226224,0.2360601 0.01311,0.029507 0.04098,0.1278657 0.0836,0.2950752 z m -2.763871,-0.088522 -0.04918,0.088522 h -0.177045 c -0.0033,-0.029507 -0.0049,-0.07049 -0.0049,-0.122948 0,-0.042622 0.0016,-0.075408 0.0049,-0.098358 h 0.177045 z m -0.442613,0.8901433 -0.04918,0.226225 c -0.08524,-0.124587 -0.18852,-0.329501 -0.309829,-0.6147405 -0.121309,-0.2852393 -0.181963,-0.4524486 -0.181963,-0.5016278 0,-0.00656 0.0082,-0.026232 0.02459,-0.059015 0.0065,-0.016393 0.01309,-0.040983 0.01967,-0.073769 h 0.40327 l 0.04426,0.1770451 h -0.221307 v 0.2704857 c 0.04918,0.075408 0.09344,0.1622913 0.132784,0.2606497 0.04262,0.098358 0.08852,0.2032738 0.137702,0.3147468 z m 0.934405,0.04426 c 0,0.347533 -0.02131,0.570479 -0.06393,0.668838 -0.08524,0.163931 -0.168849,0.327861 -0.250814,0.491792 h -0.226224 c 0.01967,-0.07541 0.09344,-0.254093 0.221306,-0.536054 0.140981,-0.314747 0.247536,-0.522939 0.319665,-0.624576 z m 1.780287,-1.2442333 c -0.340976,0 -0.560643,0.09508 -0.659001,0.2852394 -0.09508,0.1901595 -0.14262,0.5770358 -0.14262,1.1606289 0,0.406548 0.0098,0.663919 0.02951,0.772114 0.05573,0.311468 0.283597,0.493431 0.68359,0.545889 l -0.132783,0.309829 h -1.913071 c -0.07213,-0.09508 -0.113113,-0.152456 -0.122948,-0.172127 -0.01967,-0.03607 -0.04098,-0.113114 -0.06393,-0.231143 0.281961,0 0.485235,-0.07377 0.609822,-0.221306 0.101637,-0.121309 0.152455,-0.298354 0.152455,-0.531135 V 9.2677917 c -0.111473,0.1049156 -0.277043,0.396712 -0.49671,0.8753893 -0.183602,0.406549 -0.373761,0.814736 -0.570478,1.224563 -0.193439,0.409827 -0.344255,0.61474 -0.452449,0.61474 -0.09836,0 -0.2377,-0.204913 -0.418023,-0.61474 -0.05573,-0.127866 -0.218025,-0.542611 -0.486874,-1.244234 -0.193439,-0.501628 -0.336058,-0.816375 -0.427859,-0.9442409 -0.02295,0.042622 -0.04426,0.083605 -0.06393,0.122948 -0.01967,0.039343 -0.02951,0.073769 -0.02951,0.1032763 v 1.6032416 c 0,0.216389 0.07541,0.37868 0.226224,0.486874 0.124587,0.08852 0.288518,0.132784 0.491792,0.132784 -0.01311,0.0459 -0.02459,0.08196 -0.03442,0.108195 -0.01967,0.04918 -0.0541,0.118031 -0.103276,0.206552 h -1.509802 c -0.02951,-0.134423 -0.04426,-0.239339 -0.04426,-0.314747 0.288518,-0.03935 0.478678,-0.152459 0.570479,-0.339336 0.06557,-0.131145 0.09836,-0.365566 0.09836,-0.703263 0,-0.04918 -0.0016,-0.09836 -0.0049,-0.147537 v -0.162292 -0.04918 -0.2950751 c 0,-0.4590059 -0.05246,-0.7573597 -0.157373,-0.8950615 C 21.449577,8.8956687 21.295473,8.8251789 21.08892,8.8251789 V 8.692395 l 0.0836,-0.09344 h 2.232736 l 0.132783,0.1770452 V 8.908784 c -0.03607,-0.00328 -0.06721,-0.00492 -0.09344,-0.00492 -0.02623,-0.00328 -0.04754,-0.00492 -0.06393,-0.00492 -0.11803,0 -0.21147,0.019672 -0.280321,0.059015 -0.06885,0.039343 -0.103277,0.1032763 -0.103277,0.1917989 0,0.045901 0.1,0.3163863 0.299993,0.8114568 0.199996,0.4917913 0.339337,0.7967023 0.418024,0.9147333 0.08852,-0.08852 0.236059,-0.354091 0.442612,-0.796704 0.206553,-0.4426123 0.309829,-0.7278514 0.309829,-0.8557173 0,-0.186881 -0.0836,-0.288518 -0.250814,-0.3049111 -0.163931,-0.016393 -0.272125,-0.032786 -0.324582,-0.049179 0.0098,-0.016393 0.03606,-0.07049 0.07869,-0.1622913 0.01639,-0.036065 0.03443,-0.072129 0.0541,-0.1081943 h 2.321258 c 0.03935,0.059015 0.07049,0.1147518 0.09344,0.1672093 0.02623,0.052458 0.05409,0.116391 0.0836,0.1917989 z m 0.216388,3.0982893 c 0,0.06229 -0.02787,0.152455 -0.0836,0.270486 -0.03934,0.08197 -0.0836,0.162291 -0.132784,0.240978 H 24.56589 c -0.03279,-0.05246 -0.06229,-0.104918 -0.08852,-0.157373 -0.02623,-0.05573 -0.04262,-0.0918 -0.04918,-0.108195 h 1.96225 c 0.03934,-0.05901 0.07704,-0.122946 0.113112,-0.191799 0.04918,-0.08852 0.1,-0.173766 0.152456,-0.255731 0.02295,0.04262 0.0459,0.07213 0.06885,0.08852 0.0098,0.0065 0.01475,0.04424 0.01475,0.113112 z M 21.398749,9.2284483 h -0.35409 V 9.0907465 h 0.26065 z m 1.067189,2.0901157 c -0.05573,-0.02951 -0.1,-0.06393 -0.132784,-0.103276 -0.02951,-0.03934 -0.05901,-0.09344 -0.08852,-0.162291 v -0.895062 c 0.05901,0.06885 0.104914,0.140981 0.137702,0.216389 0.03279,0.07213 0.06065,0.134423 0.0836,0.186881 z m 1.603242,0.66392 c 0,0.07213 -0.03934,0.173766 -0.11803,0.304911 -0.09508,0.157373 -0.195078,0.23606 -0.299993,0.23606 -0.124587,0 -0.198356,-0.04262 -0.221307,-0.127866 -0.0098,-0.06229 -0.01803,-0.108194 -0.02459,-0.137702 0.203274,0 0.334418,-0.05082 0.393433,-0.152455 l 0.186881,-0.304911 c 0.02623,0.04262 0.0459,0.07705 0.05902,0.103276 0.01639,0.02295 0.02459,0.04918 0.02459,0.07869 z m -1.027845,0.06393 c -0.0065,0.03935 -0.01473,0.07541 -0.02459,0.108194 -0.03279,0.08852 -0.09672,0.209831 -0.191799,0.363926 h -1.519637 l -0.132784,-0.177045 v -0.132784 h 1.519637 c 0.07213,-0.08524 0.121309,-0.145898 0.147538,-0.181963 0.0459,-0.06885 0.08524,-0.126226 0.11803,-0.172127 0.0098,0.02295 0.02623,0.05573 0.04918,0.09836 0.02295,0.04262 0.03443,0.07377 0.03443,0.09344 z" />
    <path
       id="path100"
       style="font-size:3.52465px;font-family:'Bucklane Script PERSONAL USE';-inkscape-font-specification:'Bucklane Script PERSONAL USE, Normal';text-align:center;letter-spacing:0.00359514px;text-anchor:middle;fill:#ff6600;fill-opacity:0.592157;stroke:#000080;stroke-width:0.131853;stroke-linecap:round;stroke-linejoin:round;stroke-dasharray:none;paint-order:fill markers stroke"
       d="m 29.198552,11.828241 c 0.755286,0 1.506183,-0.649898 1.519356,-1.356882 0.01757,-0.8035907 -0.676246,-0.9836297 -0.807982,-1.5149664 -0.109784,-0.4566842 0.14052,-0.7772427 0.430339,-0.7201576 0.25908,0.0527 0.395207,0.4610773 0.144909,0.9397186 h 0.158083 L 31.253635,8.0649785 H 31.113116 C 31.060426,8.1703654 30.937468,8.2845393 30.827688,8.258192 30.691561,8.227457 30.586172,8.0649785 30.305134,8.0649785 c -0.408381,0 -0.873849,0.3996006 -0.873849,0.9924131 0,0.7421127 0.693811,0.9177607 0.693811,1.5896154 0,0.5489 -0.465468,1.001194 -0.913372,1.005585 -0.496205,0.0043 -0.829936,-0.276645 -0.847502,-0.676245 -0.01757,-0.338122 0.175648,-0.597204 0.403991,-0.654289 0.320558,-0.07465 0.452295,0.206386 0.237125,0.3996 0.601595,0.09222 0.895806,-0.601595 0.430339,-0.8387207 -0.46986,-0.237125 -1.190017,0.1712567 -1.260277,0.8870227 -0.0483,0.465468 0.254691,1.058281 1.023152,1.058281 z m 0.764156,1.097801 -0.02195,0.175648 1.291013,-0.412774 0.02635,-0.223951 c -0.320558,0.11417 -0.430339,0.131737 -0.276646,-0.338122 l 0.241515,-0.698201 c 0.04392,0.158082 0.162475,0.241515 0.346907,0.241515 0.219559,0 0.592811,-0.153692 0.869457,-0.61916 0.263471,0.04391 0.483033,-0.07026 0.579639,-0.281037 l -0.109785,-0.0527 c -0.06587,0.14052 -0.228342,0.188823 -0.364469,0.127346 l 0.04391,-0.101004 c 0.281036,-0.711374 0.206386,-1.1987977 -0.223952,-1.1987977 -0.215168,0 -0.417163,0.109785 -0.592812,0.316168 l 0.109785,-0.316168 h -0.05708 c -0.140518,0.03514 -0.535727,0.07904 -0.733331,0.08782 l -0.08782,0.18443 c 0.259081,-0.03514 0.28982,0.01317 0.210778,0.2371247 l -0.76407,2.156081 c -0.1493,0.417164 -0.215169,0.570857 -0.487423,0.715766 z m 1.484228,-2.125343 c 0.180038,-0.500597 0.417163,-0.9045877 0.601595,-0.9045877 0.158082,0 0.188821,0.2063857 0.140517,0.5137707 -0.04391,0.0087 -0.08782,0.02196 -0.136127,0.03951 -0.01317,0.162475 0.0043,0.276646 0.04391,0.36447 -0.136127,0.434729 -0.329341,0.522553 -0.465468,0.522553 -0.215169,0 -0.294211,-0.158083 -0.18443,-0.535726 z m 2.14299,0.895805 c 0.487424,0 0.865068,-0.346905 1.12415,-0.926544 l -0.109786,-0.0527 c -0.18882,0.408384 -0.531335,0.623553 -0.786024,0.623553 -0.263473,0 -0.513772,-0.215169 -0.456686,-0.575248 1.106583,0.01317 1.488619,-1.3480984 0.597204,-1.2383197 -0.333732,0.03951 -0.781635,0.36447 -1.005585,0.9441087 -0.267864,0.693811 0.07025,1.225146 0.636724,1.225146 z m -0.18443,-1.0978 c 0.166867,-0.588422 0.447903,-0.8694587 0.605987,-0.8606767 0.206386,0.0088 -0.07465,0.9133707 -0.605987,0.8606767 z m 1.813656,1.09341 c 0.487424,0 0.935326,-0.298603 1.216364,-0.922154 l -0.109785,-0.0527 c -0.210778,0.456686 -0.575248,0.6499 -0.834329,0.619161 -0.276646,-0.03074 -0.46986,-0.316167 -0.355689,-0.764069 0.131737,-0.50938 0.412774,-0.7816347 0.592813,-0.8123717 0.122954,-0.02196 0.210778,0.03073 0.180041,0.114169 -0.166866,-0.02635 -0.28982,0.105387 -0.324949,0.2678627 -0.08782,0.403991 0.412772,0.430338 0.544508,-0.0483 0.08344,-0.3073837 -0.06148,-0.6015947 -0.452294,-0.5708557 -0.254689,0.02196 -0.702592,0.250298 -1.009977,0.9484987 -0.307384,0.698201 0.07465,1.220755 0.553293,1.220755 z m 1.220845,0.01317 c 0.346906,0 0.746506,-0.311778 1.027543,-0.935327 l -0.109785,-0.0527 c -0.144909,0.316167 -0.377644,0.570857 -0.544509,0.570857 -0.109784,0 -0.14491,-0.06148 -0.03074,-0.377644 l 0.491815,-1.3656637 h -0.06148 c -0.188823,0.08782 -0.412773,0.105387 -0.68942,0.122954 l -0.101004,0.188821 c 0.210777,-0.02635 0.219559,0.0087 0.166865,0.1536927 l -0.364469,0.988021 c -0.11417,0.307383 -0.171258,0.706984 0.215168,0.706984 z m 0.386427,-2.3800324 c 0.131736,0.114169 0.36447,0.06587 0.518161,-0.114171 0.153693,-0.180039 0.166866,-0.4171648 0.03514,-0.5313362 -0.136128,-0.1141701 -0.36447,-0.061483 -0.518163,0.118568 -0.153692,0.1756482 -0.166866,0.4127742 -0.03514,0.5269452 z m 0.781719,2.3712494 c 0.263472,0 0.483032,-0.201996 0.676246,-0.522554 -0.05708,0.263473 -0.02635,0.522554 0.289819,0.522554 0.346905,0 0.702593,-0.302995 0.983629,-0.926544 l -0.109785,-0.0527 c -0.1493,0.316167 -0.355688,0.570857 -0.504988,0.570857 -0.109786,0 -0.188823,-0.06148 -0.07465,-0.377644 l 0.47425,-1.3656637 h -0.05708 c -0.158082,0.05708 -0.346904,0.08344 -0.483032,0.08344 l -0.03952,0.11417 c -0.03951,-0.171255 -0.184431,-0.22395 -0.346906,-0.22395 -0.25469,0 -0.680637,0.228343 -1.005586,0.9528897 -0.320557,0.720159 -0.232733,1.225146 0.197605,1.225146 z m 1.014369,-1.550095 -0.07465,0.223951 c -0.188821,0.540118 -0.43473,0.91337 -0.627941,0.91337 -0.188822,0 -0.180041,-0.29421 -0.03952,-0.711374 0.201996,-0.5928127 0.456685,-0.8123717 0.61477,-0.8123717 0.136127,0 0.206385,0.101004 0.127345,0.3864247 z m 0.966154,1.558878 c 0.346904,0 0.746503,-0.311778 1.027542,-0.935327 l -0.109786,-0.0527 c -0.14491,0.316167 -0.377643,0.570857 -0.544509,0.570857 -0.109785,0 -0.144909,-0.06148 -0.03074,-0.377644 l 0.961675,-2.7532844 h -0.06147 C 40.673295,8.288926 40.370302,8.3460124 39.983875,8.3899238 l -0.06587,0.1800397 c 0.259081,-0.035133 0.281036,-0.02635 0.184431,0.2590807 L 39.35154,10.9983 c -0.105387,0.311775 -0.149301,0.706984 0.237124,0.706984 z m 1.032019,0 c 0.346905,0 0.746506,-0.311778 1.027542,-0.935327 l -0.109786,-0.0527 c -0.14491,0.316167 -0.377643,0.570857 -0.544509,0.570857 -0.109784,0 -0.144909,-0.06148 -0.03074,-0.377644 l 0.491816,-1.3656637 h -0.06148 c -0.188821,0.08782 -0.412773,0.105387 -0.689419,0.122954 l -0.101004,0.188821 c 0.210779,-0.02635 0.219562,0.0087 0.166866,0.1536927 l -0.36447,0.988021 c -0.114169,0.307383 -0.171256,0.706984 0.215169,0.706984 z m 0.386426,-2.3800324 c 0.131737,0.114169 0.36447,0.06587 0.518162,-0.114171 0.153693,-0.180039 0.166866,-0.4171648 0.03514,-0.5313362 -0.136127,-0.1141701 -0.36447,-0.061483 -0.518163,0.118568 -0.153691,0.1756482 -0.166865,0.4127742 -0.03514,0.5269452 z m 0.816848,2.3668574 c 0.316167,-0.01757 0.562074,-0.184431 0.689419,-0.412772 0.219562,-0.05708 0.483034,-0.329341 0.566466,-0.50938 l -0.109785,-0.0527 c -0.06148,0.131736 -0.241517,0.302993 -0.377644,0.338122 0.03514,-0.197604 -0.01317,-0.425946 -0.184431,-0.632332 -0.02635,-0.03074 -0.05269,-0.07026 -0.07465,-0.105387 0.408383,-0.241517 0.452295,-0.7508957 0.06587,-0.7948067 -0.434728,-0.0483 -0.654289,0.461076 -0.566465,0.8518927 l -0.210777,0.311775 c -0.02196,-0.0043 -0.03952,0 -0.0527,0 -0.513771,0.06587 -0.483032,1.045108 0.25469,1.005587 z m -0.311775,-0.764068 c -0.14491,0.311775 0.206386,0.40399 0.316167,0.140517 0.05708,-0.131735 0.02635,-0.259081 -0.05708,-0.329339 l 0.140519,-0.166866 0.03074,0.03951 c 0.254689,0.320557 0.162475,0.834328 -0.197605,0.834328 -0.443511,0 -0.430337,-0.509379 -0.232733,-0.518161 z m 0.742113,-0.781635 c -0.07904,-0.2590817 0.02196,-0.4742497 0.166865,-0.4479017 0.144911,0.02635 0.07465,0.3556857 -0.166865,0.4479017 z m 0.948591,1.554486 c 0.346904,0 0.750896,-0.307386 1.031933,-0.930935 l -0.109784,-0.0527 c -0.144911,0.320559 -0.412775,0.570857 -0.570858,0.570857 -0.105387,0 -0.210777,-0.06148 -0.101004,-0.382035 l 0.412773,-1.1768417 h 0.399599 l 0.0527,-0.184431 h -0.390806 l 0.338122,-0.9616641 h -0.05708 C 44.046001,8.714884 43.7474,8.7675774 43.360973,8.8114901 l -0.06587,0.1844305 c 0.254689,-0.03952 0.276645,-0.02635 0.18443,0.25469 L 43.378531,9.5448223 H 43.07993 l -0.06148,0.184429 h 0.29421 l -0.43912,1.2690577 c -0.105387,0.311775 -0.05708,0.702593 0.32934,0.702593 z" />
  </g>
</svg>
